<?xml version="1.0" standalone="no"?>
<!DOCTYPE svg PUBLIC "-//W3C//DTD SVG 1.1//EN" "http://www.w3.org/Graphics/SVG/1.1/DTD/svg11.dtd" >
<svg>
<metadata>
Created by FontForge 20110222 at Fri Feb 13 18:31:07 2015
 By deploy user
Copyright (c) Rosbank, 2005. All rights reserved.
</metadata>
<defs>
<font id="RosbankSansTTLight" horiz-adv-x="498" >
  <font-face 
    font-family="Rosbank SansTT Light"
    font-weight="400"
    font-stretch="normal"
    units-per-em="1000"
    panose-1="2 0 0 0 0 0 0 0 0 0"
    ascent="800"
    descent="-200"
    x-height="480"
    cap-height="674"
    bbox="-34 -250 970 822"
    underline-thickness="50"
    underline-position="-50"
    unicode-range="U+0020-2260"
  />
<missing-glyph horiz-adv-x="219" 
 />
    <glyph glyph-name=".notdef" horiz-adv-x="219" 
 />
    <glyph glyph-name=".null" horiz-adv-x="0" 
 />
    <glyph glyph-name="nonmarkingreturn" horiz-adv-x="219" 
 />
    <glyph glyph-name="space" unicode=" " horiz-adv-x="219" 
 />
    <glyph glyph-name="space" unicode="&#xa0;" horiz-adv-x="219" 
 />
    <glyph glyph-name="dollar" unicode="$" horiz-adv-x="513" 
d="M411 182q0 -28 -9.5 -54.5t-27.5 -48.5t-45.5 -37.5t-63.5 -21.5v-94q0 -10 -10 -10h-21q-10 0 -10 10v93q-35 0 -71 11t-62 28q-5 3 -5 9q0 3 1 5l11 19q3 5 8 5q3 0 5 -1q23 -16 55 -26.5t65 -10.5q61 0 97.5 34.5t36.5 85.5q0 49 -30.5 81.5t-86.5 56.5q-37 16 -66 33
t-49 37t-30.5 44t-10.5 54q0 60 38.5 101t100.5 50v94q0 10 10 10h21q10 0 10 -10v-93q37 -2 64.5 -10.5t46.5 -20.5q5 -3 5 -9q0 -3 -1 -5l-11 -19q-3 -5 -9 -5q-3 0 -5 1q-16 10 -42.5 19.5t-63.5 9.5q-32 0 -54.5 -9.5t-37 -25t-21 -34t-6.5 -36.5q0 -24 7.5 -41.5
t22.5 -32.5t39 -28.5t57 -28.5q70 -32 109 -73t39 -106z" />
    <glyph glyph-name="percent" unicode="%" horiz-adv-x="734" 
d="M660 179q0 66 -22.5 108.5t-74.5 42.5t-74.5 -42.5t-22.5 -108.5t22.5 -108.5t74.5 -42.5t74.5 42.5t22.5 108.5zM703 179q0 -50 -11 -85t-30.5 -57t-45 -32.5t-53.5 -10.5q-29 0 -54 10.5t-44.5 32.5t-30.5 57t-11 85q0 49 11 84.5t30.5 57.5t44.5 32.5t54 10.5
q28 0 53.5 -10.5t45 -32.5t30.5 -57.5t11 -84.5zM266 496q0 66 -22.5 108.5t-74.5 42.5t-74.5 -42.5t-22.5 -108.5t22.5 -108.5t74.5 -42.5t74.5 42.5t22.5 108.5zM309 496q0 -50 -11 -85t-30.5 -57t-45 -32.5t-53.5 -10.5q-29 0 -54 10.5t-44.5 32.5t-30.5 57t-11 85
q0 49 11 84.5t30.5 57.5t44.5 32.5t54 10.5q28 0 53.5 -10.5t45 -32.5t30.5 -57.5t11 -84.5zM580 679q0 -1 -0.5 -2.5t-3.5 -8.5l-377 -671q-5 -10 -12 -10h-27q-7 0 -7 7q0 1 0.5 2.5t3.5 8.5l373 671q5 10 12 10h31q7 0 7 -7z" />
    <glyph glyph-name="ampersand" unicode="&#x26;" horiz-adv-x="605" 
d="M419 109q-14 17 -37 42t-51 55.5t-60 66t-65 73.5q-16 -9 -34.5 -23.5t-34.5 -34.5t-27 -46t-11 -59q0 -34 11.5 -62.5t31.5 -49t48.5 -32t61.5 -11.5h1q52 0 94.5 23.5t71.5 57.5zM568 17q7 -7 7 -11q0 -6 -5 -6h-41q-8 0 -12 2.5t-6 5.5l-65 72q-51 -49 -101 -70
t-104 -21q-41 0 -76 14.5t-60.5 40t-39.5 60t-14 73.5q0 35 10 64t28 53.5t42.5 44.5t52.5 37v3q-28 38 -43 74.5t-15 72.5q0 30 11.5 58.5t32.5 51t51 36t67 13.5t69 -9.5t51 -21.5q5 -3 5 -9q0 -3 -1 -5l-11 -19q-3 -5 -9 -5q-3 0 -5 1q-16 10 -42.5 19.5t-64.5 9.5
q-24 0 -44.5 -9.5t-34.5 -25.5t-22 -37t-8 -44q0 -43 16 -76t39 -60l220 -251q12 19 22.5 38.5t18.5 43.5t15 53t13 67q2 10 10 10h25q4 0 7 -0.5t3 -5.5q0 -2 -1 -6t-1 -5q-9 -40 -17 -72t-18 -59t-22 -49t-28 -43z" />
    <glyph glyph-name="quotesingle" unicode="'" horiz-adv-x="178" 
d="M154 686q0 -2 -1.5 -6.5t-1.5 -5.5l-67 -194q-3 -9 -10 -9h-19q-5 0 -5 4q0 2 1 7t3 12l42 188q2 10 13 10h37q8 0 8 -6z" />
    <glyph glyph-name="parenleft" unicode="(" horiz-adv-x="265" 
d="M248 -119q0 -3 -6 -3h-20q-11 0 -15 3.5t-6 5.5q-25 33 -49 72.5t-43 88.5t-30.5 107.5t-11.5 130.5t11.5 131t30.5 107.5t43 88.5t49 73q2 2 6 5.5t15 3.5h20q6 0 6 -3q0 -4 -3 -7q-30 -38 -54 -80t-41.5 -90.5t-27 -105t-9.5 -123.5t9.5 -123t27 -104.5t41.5 -90.5
t54 -80q3 -3 3 -7z" />
    <glyph glyph-name="parenright" unicode=")" horiz-adv-x="265" 
d="M198 288q0 -72 -11.5 -131t-30.5 -107.5t-43 -88.5t-49 -73q-2 -2 -6 -5.5t-15 -3.5h-20q-6 0 -6 3q0 4 3 7q30 38 54 80t41.5 90.5t27 105t9.5 123.5t-9.5 123t-27 104.5t-41.5 90.5t-54 80q-3 3 -3 7q0 3 6 3h20q11 0 15 -3.5t6 -5.5q25 -33 49 -72.5t43 -88.5
t30.5 -107.5t11.5 -130.5z" />
    <glyph glyph-name="asterisk" unicode="*" horiz-adv-x="415" 
d="M385 494q0 -14 -13 -14q-3 0 -10.5 0.5t-15.5 2.5l-113 18l-7 -12l72 -88q11 -13 14 -18.5t3 -10.5q0 -7 -7 -11l-25 -14q-5 -3 -9 -3q-6 0 -10 7t-11 24l-41 107h-13l-41 -107q-7 -19 -11.5 -25t-10.5 -6q-2 0 -8 2l-25 15q-8 5 -8 12q1 4 3.5 9.5t13.5 18.5l72 88
l-6 12l-113 -18q-8 -2 -15.5 -2.5t-10.5 -0.5q-13 0 -13 14v30q0 14 13 14q3 0 10.5 -0.5t15.5 -2.5l113 -18l6 13l-71 88q-11 14 -14.5 19.5t-3.5 8.5q0 6 8 11l26 15q4 3 8 3q7 0 11 -7.5t10 -23.5l41 -107h13l41 107q7 17 11.5 24t9.5 7q3 0 8 -3l25 -14q9 -5 9 -12
t-18 -28l-72 -88l7 -13l113 18q8 2 15.5 2.5t10.5 0.5q13 0 13 -14v-30v0z" />
    <glyph glyph-name="plus" unicode="+" horiz-adv-x="596" 
d="M565 255q0 -10 -10 -10h-235v-235q0 -10 -10 -10h-23q-10 0 -10 10v235h-234q-10 0 -10 10v23q0 10 10 10h234v234q0 10 10 10h23q10 0 10 -10v-234h235q10 0 10 -10v-23v0z" />
    <glyph glyph-name="comma" unicode="," horiz-adv-x="174" 
d="M142 88q0 -5 -2 -10l-70 -188q-4 -11 -13 -12l-11 -2q-5 -1 -8 -1h-5q-4 0 -4 5l45 183q2 8 5.5 16t14.5 10q19 4 29 5t12 1q7 0 7 -7z" />
    <glyph glyph-name="hyphen" unicode="-" horiz-adv-x="298" 
d="M270 286v-4q0 -2 -1 -7l-1 -9q-2 -12 -13 -12h-215q-12 0 -12 10v3q0 3 1 8l1 9q1 12 13 12h215q12 0 12 -10z" />
    <glyph glyph-name="period" unicode="." horiz-adv-x="174" 
d="M134 34q0 -20 -10.5 -32.5t-29.5 -12.5t-29.5 12.5t-10.5 32.5t10.5 32.5t29.5 12.5t29.5 -12.5t10.5 -32.5z" />
    <glyph glyph-name="slash" unicode="/" horiz-adv-x="351" 
d="M367 707q0 -1 -0.5 -2.5t-3.5 -9.5l-322 -725q-3 -5 -5.5 -7.5t-7.5 -2.5h-28q-7 0 -7 7q0 1 0.5 2.5t3.5 9.5l318 725q5 10 13 10h32q7 0 7 -7z" />
    <glyph glyph-name="zero" unicode="0" 
d="M456 341q0 -181 -55 -266.5t-151 -85.5q-44 0 -81.5 21t-65.5 64t-44 107.5t-16 151.5q0 181 55 266.5t152 85.5q43 0 80.5 -21t65.5 -63.5t44 -107.5t16 -152zM405 341q0 66 -8.5 122t-27.5 96t-48 62.5t-71 22.5q-41 0 -70.5 -22.5t-48.5 -64t-28 -98.5t-9 -126
q0 -66 8.5 -121.5t27.5 -96t48.5 -63t71.5 -22.5q40 0 69.5 23t48.5 64t28 98t9 126z" />
    <glyph glyph-name="one" unicode="1" 
d="M289 10q0 -10 -10 -10h-27q-11 0 -11 10v613l-97 -58q-4 -2 -6 -2q-7 0 -8 6l-7 19l-2 6q0 2 1.5 3.5t7.5 5.5l98 61q17 10 24 10h27q10 0 10 -10v-654v0z" />
    <glyph glyph-name="two" unicode="2" 
d="M440 36q0 -3 -2 -11l-3 -15q-2 -10 -10 -10h-364q-10 0 -10 10v15q0 5 3 8l8 8q85 91 144 156t96.5 115.5t54.5 91.5t17 85q0 29 -6.5 56.5t-23 48.5t-44 34t-69.5 13q-43 0 -74 -18t-56 -33q-3 -2 -7.5 -4.5t-7.5 -2.5q-4 0 -8 5l-9 15q-2 4 -2 6q0 3 6 9q32 29 74.5 48
t93.5 19t86 -18t56 -45t30.5 -60t9.5 -63q0 -50 -18.5 -96t-56.5 -98.5t-95 -115.5t-135 -145v-3h313q9 0 9 -5z" />
    <glyph glyph-name="three" unicode="3" 
d="M425 189q0 -38 -13.5 -74t-40.5 -64t-68.5 -45t-98.5 -17q-44 0 -83 12.5t-62 26.5q-6 3 -6 10q0 3 1 4l10 20q3 7 9 7q3 0 5 -1q20 -13 55 -25t76 -12q50 0 82 16t50.5 39.5t25.5 50.5t7 50q0 42 -16.5 72t-43 49t-61 28t-70.5 9h-32q-10 0 -10 10v21q0 10 10 10h34
q27 0 56 8t52.5 25t39 42.5t15.5 60.5q0 23 -7 45t-22 38.5t-39 26.5t-58 10q-38 0 -71.5 -14.5t-55.5 -31.5q-2 -1 -5 -1q-6 0 -9 5l-9 17q-1 2 -1 6q0 6 5 9q23 20 64.5 36.5t87.5 16.5t78.5 -13.5t53 -36t30 -50.5t9.5 -57q0 -51 -31 -93.5t-91 -65.5v-2q31 -6 58 -21
t47 -38t31.5 -53t11.5 -66z" />
    <glyph glyph-name="four" unicode="4" 
d="M278 523l-204 -272v-2h264v243q0 11 0.5 31.5t1.5 40.5q1 24 2 51l-4 1zM488 244q0 -3 -2 -11l-4 -18q-2 -10 -10 -10h-86v-195q0 -10 -10 -10h-27q-11 0 -11 10v195h-313q-10 0 -10 11v17q0 5 3 11t7 11l299 404q8 10 13.5 12.5t11.5 2.5h27q10 0 10 -10v-415h93
q9 0 9 -5z" />
    <glyph glyph-name="five" unicode="5" 
d="M411 669q0 -3 -2 -11l-4 -17q-2 -10 -10 -10h-229l-32 -217q12 2 25 3.5t36 1.5q41 0 81 -12t71.5 -36.5t50.5 -63t19 -92.5q0 -51 -17.5 -92.5t-47 -71.5t-69.5 -46t-85 -16q-23 0 -48.5 4.5t-48 11t-37 15t-14.5 16.5q0 3 1 5l10 21q3 7 9 7q1 0 5 -2q16 -11 48 -23
t78 -12q35 0 66 13t54 36t36 55t13 70q0 37 -11.5 68t-34.5 53.5t-59 35.5t-84 13q-29 0 -53 -3t-32 -3q-2 0 -4.5 1t-2.5 7q0 2 0.5 7.5t1.5 11.5l36 263q2 14 13 14h262q9 0 9 -5z" />
    <glyph glyph-name="six" unicode="6" 
d="M458 224q0 -44 -13.5 -86.5t-39 -75.5t-64 -53t-87.5 -20q-44 0 -82.5 18.5t-67.5 54.5t-45.5 89t-16.5 122q0 85 24 160t68.5 131.5t108 89.5t143.5 33q7 0 10 -10l4 -18q1 -5 1 -7v-4q0 -7 -9 -7q-61 0 -114 -24.5t-93 -65t-64.5 -94t-28.5 -111.5h2q23 38 66 66.5
t104 28.5q45 0 80.5 -16.5t61 -45.5t39 -68.5t13.5 -86.5zM408 220q0 44 -11.5 77.5t-32.5 56t-50 33.5t-63 11q-24 0 -52 -10.5t-52.5 -28.5t-40.5 -43t-16 -55q0 -51 11 -93.5t32 -72.5t52 -47t72 -17q33 0 61 13.5t48 38t31 59.5t11 78z" />
    <glyph glyph-name="seven" unicode="7" 
d="M451 643q0 -6 -7 -20l-282 -610q-3 -6 -5.5 -9.5t-7.5 -3.5h-30q-7 0 -7 6q0 2 1 4l287 620v3h-323q-10 0 -10 10v21q0 10 10 10h364q10 0 10 -10v-21v0z" />
    <glyph glyph-name="eight" unicode="8" 
d="M453 180q0 -43 -16.5 -78t-45 -60t-65.5 -39t-77 -14q-44 0 -81.5 13.5t-64.5 38t-42.5 58t-15.5 73.5q0 66 36.5 111t99.5 73v4q-59 27 -84.5 71.5t-25.5 88.5q0 38 14 69t39 52.5t59 33t73 11.5q41 0 73 -13t54.5 -35.5t34.5 -52t12 -61.5q0 -21 -5.5 -43t-18.5 -43
t-35.5 -40.5t-55.5 -35.5v-4q69 -28 103.5 -73.5t34.5 -104.5zM404 173q0 36 -11.5 62.5t-33 46t-52.5 34t-71 26.5q-73 -22 -107 -67t-34 -103q0 -29 10.5 -54.5t30 -45t48 -31t64.5 -11.5q72 0 114 40.5t42 102.5zM380 524q0 23 -7 45t-22.5 39t-40 27.5t-58.5 10.5
q-33 0 -58 -10.5t-42 -27.5t-25.5 -40t-8.5 -48q0 -61 38.5 -94t105.5 -50q52 19 85 56t33 92z" />
    <glyph glyph-name="nine" unicode="9" 
d="M254 644q-34 0 -62 -14.5t-48.5 -40t-31.5 -60.5t-11 -77q0 -38 10.5 -68t30 -52t46.5 -33.5t60 -11.5q28 0 57 9.5t53 26t39 37.5t15 44q0 53 -9.5 97.5t-29 76t-49.5 49t-70 17.5zM460 405q0 -82 -16.5 -144t-44 -108t-62.5 -77t-73 -50t-75 -27.5t-68 -9.5
q-7 0 -10 10l-4 17q-1 5 -1.5 7t-0.5 4q0 8 10 8q49 0 97.5 15.5t89.5 50.5t70 91.5t39 139.5l-3 -1q-31 -42 -73.5 -64.5t-95.5 -22.5q-46 0 -81 17t-58.5 45.5t-35.5 65.5t-12 76q0 47 15 90t42.5 76t66 52.5t86.5 19.5q42 0 78.5 -18.5t63 -54t41.5 -88t15 -120.5z" />
    <glyph glyph-name="colon" unicode=":" horiz-adv-x="174" 
d="M134 406q0 -20 -10.5 -32.5t-29.5 -12.5t-29.5 12.5t-10.5 32.5t10.5 32.5t29.5 12.5t29.5 -12.5t10.5 -32.5zM134 34q0 -20 -10.5 -32.5t-29.5 -12.5t-29.5 12.5t-10.5 32.5t10.5 32.5t29.5 12.5t29.5 -12.5t10.5 -32.5z" />
    <glyph glyph-name="semicolon" unicode=";" horiz-adv-x="174" 
d="M143 406q0 -20 -10.5 -32.5t-29.5 -12.5t-29.5 12.5t-10.5 32.5t10.5 32.5t29.5 12.5t29.5 -12.5t10.5 -32.5zM70 -110q-4 -11 -13 -12l-11 -2q-5 -1 -8 -1h-5q-4 0 -4 5l45 183q2 8 5.5 16t14.5 10q19 4 29 5t12 1q7 0 7 -7q0 -5 -2 -10z" />
    <glyph glyph-name="less" unicode="&#x3c;" horiz-adv-x="596" 
d="M525 11q0 -8 -4 -8q-5 0 -9 3l-429 235q-5 2 -8.5 5t-3.5 8v22q0 5 3.5 8t8.5 5l429 235q4 3 9 3q4 0 4 -8v-26q0 -8 -10 -13l-398 -214v-2l398 -214q10 -5 10 -13v-26v0z" />
    <glyph glyph-name="equal" unicode="=" horiz-adv-x="596" 
d="M570 190q0 -4 -2 -12l-3 -16q-2 -10 -10 -10h-512q-10 0 -10 10l5 23q2 10 10 10h512q10 0 10 -5zM570 380q0 -4 -2 -12l-3 -16q-2 -10 -10 -10h-512q-10 0 -10 10l5 23q2 10 10 10h512q10 0 10 -5z" />
    <glyph glyph-name="greater" unicode="&#x3e;" horiz-adv-x="596" 
d="M525 254q0 -5 -3.5 -8t-8.5 -5l-429 -235q-5 -3 -9 -3t-4 8v26q0 8 10 13l398 214v2l-398 214q-10 5 -10 13v26q0 8 4 8t9 -3l429 -235q5 -2 8.5 -5t3.5 -8v-22v0z" />
    <glyph glyph-name="question" unicode="?" horiz-adv-x="381" 
d="M205 34q0 -20 -10.5 -32.5t-29.5 -12.5t-29.5 12.5t-10.5 32.5t10.5 32.5t29.5 12.5t29.5 -12.5t10.5 -32.5zM332 544q0 -47 -22.5 -87.5t-63.5 -89.5q-31 -38 -46 -70.5t-15 -66.5v-12t1 -15q0 -9 1 -18q0 -10 -10 -10h-23q-9 0 -11 10q-2 8 -3 16q-1 7 -1.5 14t-0.5 14
q0 36 16.5 76t49.5 79q40 47 58.5 82.5t18.5 74.5q0 46 -27.5 74t-81.5 28q-27 0 -50 -7.5t-42 -18.5q-2 -1 -5 -1q-6 0 -9 5l-9 17q-1 2 -1 5q0 6 5 9q24 15 56.5 24.5t63.5 9.5q39 0 67.5 -12t47 -32t27.5 -45.5t9 -52.5z" />
    <glyph glyph-name="at" unicode="@" horiz-adv-x="651" 
d="M599 -21q0 -6 -8 -11q-50 -35 -102 -54t-111 -19q-72 0 -131 24t-100.5 67t-64 102.5t-22.5 131.5q0 78 25.5 142t71 110t108.5 71.5t138 25.5q45 0 72.5 -11t42.5 -29t20.5 -42t5.5 -50q0 -3 -1 -18.5t-1.5 -38t-1.5 -50.5t-1 -57v-20v-23q0 -11 0.5 -21.5t0.5 -16.5
l8 -97q1 -6 1 -10v-4q0 -3 -9 -5l-14 -2q-5 -1 -10 -1h-5q-8 0 -8 9l-7 65h-2q-9 -14 -23.5 -28t-34 -25.5t-43.5 -19t-53 -7.5q-36 0 -63 11.5t-44 30.5t-25.5 42.5t-8.5 47.5q0 42 15.5 74t50 53.5t90.5 33t137 11.5q0 32 2.5 47t2.5 26q0 17 -3.5 32.5t-14 27t-30 18.5
t-51.5 7q-56 0 -108.5 -18.5t-93.5 -57t-66 -96.5t-25 -137q0 -62 18.5 -114.5t54 -90.5t87.5 -59.5t118 -21.5q59 0 106.5 20t76.5 43q8 6 13 6q4 0 7 -4l10 -12q3 -4 3 -8zM492 335q-39 0 -82 -4t-79 -17t-59 -38.5t-23 -68.5q0 -26 8 -45t21.5 -31t30.5 -18t36 -6
q35 0 62.5 10.5t46 28t28.5 40t10 46.5v103z" />
    <glyph glyph-name="A" unicode="A" horiz-adv-x="595" 
d="M565 7q0 -4 -3.5 -5.5t-7.5 -1.5h-29q-7 0 -10 10l-81 226h-267l-80 -226q-3 -10 -10 -10h-29q-10 0 -10 4t1 6l234 654q3 10 10 10h38q7 0 10 -10l232 -652q2 -4 2 -5zM302 620h-2l-118 -344h237z" />
    <glyph glyph-name="B" unicode="B" horiz-adv-x="515" 
d="M467 188q0 -56 -18.5 -93t-51.5 -59t-79 -31.5t-100 -9.5q-32 0 -59.5 3t-54.5 9q-5 2 -11.5 5.5t-6.5 14.5v617q0 11 7 15.5t12 5.5q11 3 27 5.5t34 4.5t36.5 3t34.5 1q47 0 84.5 -9t64 -28.5t40.5 -51t14 -77.5q0 -52 -32.5 -92.5t-83.5 -57.5v-3q21 -5 46 -17
t46.5 -32.5t36 -51t14.5 -71.5zM391 510q0 71 -41 100t-116 29q-33 0 -59.5 -3.5t-40.5 -6.5v-251h98q37 0 66.5 10t50 28t31.5 42t11 52zM417 187q0 40 -16 68.5t-43 47t-63 27.5t-76 9h-85v-295q15 -3 43 -6t55 -3q39 0 72.5 7.5t58.5 25.5t39.5 47t14.5 72z" />
    <glyph glyph-name="C" unicode="C" horiz-adv-x="580" 
d="M542 29q0 -5 -4 -7t-9 -4q-31 -12 -72.5 -20t-95.5 -8q-61 0 -118.5 20t-102 62t-71.5 106.5t-27 154.5q0 75 23.5 139t67.5 111.5t107.5 74t143.5 26.5q54 0 88.5 -7.5t54.5 -15.5q5 -2 9 -4t4 -7q0 -1 -2 -7l-7 -18q-2 -7 -7 -7q-3 0 -12 3q-26 11 -57.5 17t-69.5 6
q-68 0 -122.5 -21.5t-92.5 -62t-58 -98t-20 -130.5q0 -69 19 -124.5t55.5 -94.5t89.5 -60.5t121 -21.5q38 0 71 6t67 19q6 2 8 2.5t4 0.5q5 0 7 -7l6 -16q2 -6 2 -7z" />
    <glyph glyph-name="D" unicode="D" horiz-adv-x="657" 
d="M615 353q0 -172 -98 -265t-281 -93q-35 0 -66.5 1.5t-66.5 5.5q-7 1 -12 3.5t-5 10.5v628q0 19 19 22q24 4 43.5 6.5t37.5 4t36 2t39 0.5q83 0 149 -20.5t111.5 -61t69.5 -101.5t24 -143zM566 351q0 64 -17.5 117t-55 91t-96 59t-139.5 21q-39 0 -70.5 -3t-53.5 -8v-586
q20 -3 48.5 -5t60.5 -2q81 0 141.5 22t101 63t60.5 99.5t20 131.5z" />
    <glyph glyph-name="E" unicode="E" horiz-adv-x="476" 
d="M134 634v-259h248q5 0 8 -0.5t3 -5.5q0 -2 -2 -10l-5 -16q-3 -8 -9 -8h-243v-295h291q10 0 10 -10v-20q0 -10 -10 -10h-328q-11 0 -11 10v654q0 10 11 10h316q5 0 8 -0.5t3 -5.5q0 -2 -2 -10l-5 -16q-3 -8 -9 -8h-274z" />
    <glyph glyph-name="F" unicode="F" horiz-adv-x="472" 
d="M423 668v-5q0 -3 -2 -9l-2 -10q-2 -10 -10 -10h-275v-268h248q5 0 7.5 -0.5t2.5 -5.5v-5q0 -3 -2 -9l-2 -10q-2 -10 -10 -10h-244v-316q0 -10 -10 -10h-27q-11 0 -11 10v654q0 10 11 10h316q5 0 7.5 -0.5t2.5 -5.5z" />
    <glyph glyph-name="G" unicode="G" horiz-adv-x="634" 
d="M570 39q0 -6 -3.5 -9.5t-6.5 -4.5q-28 -11 -76 -21.5t-111 -10.5q-67 0 -127 19t-111 69q-42 41 -67.5 106.5t-25.5 147.5q0 70 23 133t67.5 110t110 75t151.5 28q42 0 77 -6.5t58 -14.5q5 -2 8.5 -3t3.5 -6q0 -1 -2 -7l-7 -19q-2 -7 -7 -7q-3 0 -12 3q-23 9 -53 14.5
t-69 5.5q-69 0 -124.5 -22t-94.5 -61.5t-59.5 -95.5t-20.5 -125q0 -71 20 -127.5t57.5 -95.5t91 -60t120.5 -21q54 0 88 6.5t53 17.5v238h-152q-10 0 -10 10v19q0 10 10 10h190q10 0 10 -10v-285v0z" />
    <glyph glyph-name="H" unicode="H" horiz-adv-x="627" 
d="M542 10q0 -10 -10 -10h-28q-10 0 -10 10v327h-360v-327q0 -10 -10 -10h-28q-10 0 -10 10v654q0 10 10 10h28q10 0 10 -10v-287h360v287q0 10 10 10h28q10 0 10 -10v-654v0z" />
    <glyph glyph-name="I" unicode="I" horiz-adv-x="221" 
d="M134 10q0 -10 -10 -10h-28q-10 0 -10 10v654q0 10 10 10h28q10 0 10 -10v-654v0z" />
    <glyph glyph-name="J" unicode="J" horiz-adv-x="355" 
d="M276 205q0 -65 -15 -106.5t-40 -66t-58 -34t-69 -9.5q-17 0 -34 2.5t-32 7.5q-4 2 -7.5 3t-3.5 6q0 1 2 7l6 18q2 7 7 7q3 0 12 -3q12 -4 22 -5.5t27 -1.5q32 0 57 8t42.5 29t26.5 57t9 92v448q0 10 10 10h28q10 0 10 -10v-459v0z" />
    <glyph glyph-name="K" unicode="K" horiz-adv-x="531" 
d="M511 5q0 -5 -9 -5h-30q-7 0 -11 2t-9 8l-249 345l-69 -52v-293q0 -10 -10 -10h-28q-10 0 -10 10v654q0 10 10 10h28q10 0 10 -10v-326h3l59 68l229 258q9 10 20 10h30q10 0 10 -5q0 -4 -4 -8l-245 -273l272 -375q3 -5 3 -8z" />
    <glyph glyph-name="L" unicode="L" horiz-adv-x="458" 
d="M437 34q0 -3 -2 -11l-3 -13q-3 -10 -10 -10h-326q-10 0 -10 10v654q0 10 10 10h28q10 0 10 -10v-624h295q8 0 8 -6z" />
    <glyph glyph-name="M" unicode="M" horiz-adv-x="788" 
d="M639 618l-15 -45l-14 -38t-12 -33l-185 -492q-3 -10 -10 -10h-27q-7 0 -10 10l-175 492q-6 17 -13 37.5t-12 37.5q-7 20 -13 41h-2q-1 -29 -2 -55l-2 -46t-2 -37l-28 -470q0 -10 -10 -10h-29q-10 0 -10 8v9t1 13l47 634q1 10 10 10h35q8 0 10.5 -2.5t5.5 -10.5l163 -454
q5 -14 13.5 -37t16.5 -46q10 -27 21 -57h3q10 30 20 57l16 46t13 36l172 455q3 8 5.5 10.5t10.5 2.5h37q10 0 10 -10l42 -634q1 -9 1 -15v-7q0 -8 -9 -8h-30q-10 0 -10 10l-26 470q-1 15 -1.5 38t-1.5 46q-1 26 -2 54h-2z" />
    <glyph glyph-name="N" unicode="N" horiz-adv-x="648" 
d="M561 10q0 -10 -10 -10h-30q-7 0 -13 10l-347 543l-32 57l-2 -1q1 -42 3 -83q1 -35 2 -76t1 -73v-367q0 -10 -10 -10h-26q-10 0 -10 10v654q0 10 10 10h31q7 0 13 -10l348 -543l32 -57l2 1q-2 46 -4 90q-2 38 -3 79.5t-1 73.5v356q0 10 10 10h26q10 0 10 -10v-654v0z" />
    <glyph glyph-name="O" unicode="O" horiz-adv-x="684" 
d="M642 337q0 -89 -25 -154.5t-67 -108.5t-96.5 -64t-112.5 -21t-112.5 21t-96.5 64t-67 108.5t-25 154.5t25 154.5t67 108.5t96.5 64t112.5 21q64 0 119 -25t95.5 -71t63.5 -110t23 -142zM592 337q0 53 -15.5 108t-46.5 99.5t-78.5 72.5t-110.5 28q-60 0 -106.5 -24.5
t-79 -66.5t-49 -98t-16.5 -119t16.5 -119t49 -98t79 -66.5t106.5 -24.5t106.5 24.5t79 66.5t49 98t16.5 119z" />
    <glyph glyph-name="P" unicode="P" horiz-adv-x="512" 
d="M413 485q0 80 -46.5 117t-127.5 37q-31 0 -61 -4.5t-44 -7.5v-310h66q99 0 156 43.5t57 124.5zM461 490q0 -44 -12 -76.5t-35 -58.5q-66 -75 -218 -75h-62v-270q0 -10 -10 -10h-27q-11 0 -11 10v633q0 8 5.5 13.5t13.5 7.5q33 8 66 11.5t70 3.5q50 0 91 -11t69.5 -34
t44 -58.5t15.5 -85.5z" />
    <glyph glyph-name="Q" unicode="Q" horiz-adv-x="681" 
d="M644 -48q0 -1 -1 -4t-2 -5l-10 -27q-3 -8 -11 -8q-2 0 -9 1.5t-10 2.5q-33 9 -58.5 16.5t-47 14.5l-43 14t-47.5 15q-5 1 -14.5 4t-19.5 6t-19.5 5t-13.5 2q-62 1 -116 25t-94 67.5t-63 106.5t-23 144q0 84 22.5 150t62 111t93.5 68.5t118 23.5q63 0 118 -26t95.5 -72.5
t64 -111.5t23.5 -143q0 -70 -15.5 -124t-43.5 -94t-67 -66.5t-87 -41.5v-4l212 -44q6 -2 6 -6zM589 332q0 53 -15.5 108.5t-47 101t-78.5 74.5t-110 29q-65 0 -111.5 -27t-76.5 -71t-44 -100t-14 -115q0 -57 16.5 -111.5t48 -97t77 -68.5t104.5 -26q60 0 106.5 24t79 65
t49 96t16.5 118z" />
    <glyph glyph-name="R" unicode="R" horiz-adv-x="547" 
d="M410 495q0 77 -46 111t-125 34q-35 0 -63.5 -4t-41.5 -7v-281h97q39 0 72 10.5t56.5 29.5t37 46.5t13.5 60.5zM492 5q0 -5 -9 -5h-24q-7 0 -12.5 1t-7.5 9l-55 166q-23 71 -57.5 102t-97.5 31h-95v-299q0 -10 -10 -10h-27q-11 0 -11 10v636q0 11 7 15.5t12 5.5
q29 5 67 8.5t68 3.5q48 0 88.5 -10t69 -31t44.5 -54.5t16 -80.5q0 -34 -11 -62t-29.5 -50t-44 -38t-54.5 -26v-2q41 -13 64 -44.5t43 -86.5l63 -177q1 -2 2 -6t1 -6z" />
    <glyph glyph-name="S" unicode="S" horiz-adv-x="474" 
d="M422 175q0 -37 -13 -70.5t-40 -59t-67 -40.5t-94 -15q-38 0 -78 10t-69 26q-5 2 -9.5 5.5t-4.5 8.5q0 1 2 7l7 16q3 9 8 9q4 0 12 -5q27 -17 62.5 -27t73.5 -10q76 0 119.5 38.5t43.5 101.5q0 57 -31.5 93.5t-105.5 63.5q-81 30 -127 73.5t-46 112.5q0 37 14.5 68.5
t40.5 54t62 35.5t79 13q38 0 69 -7t50 -16q5 -2 9 -4.5t4 -7.5q0 -4 -2 -8l-8 -17q-4 -7 -7 -7q-2 0 -4.5 0.5t-7.5 2.5q-17 8 -44 16t-62 8q-41 0 -69 -12t-45 -30t-24.5 -39.5t-7.5 -41.5q0 -28 8 -49.5t25.5 -39t44 -32t62.5 -29.5q84 -33 127 -77t43 -119z" />
    <glyph glyph-name="T" unicode="T" horiz-adv-x="522" 
d="M287 634v-624q0 -10 -10 -10h-28q-10 0 -10 10v624h-210q-11 0 -11 10v20q0 10 11 10h472q5 0 7 -0.5t2 -5.5q0 -2 -2 -10l-5 -16q-3 -8 -9 -8h-207z" />
    <glyph glyph-name="U" unicode="U" horiz-adv-x="628" 
d="M543 265q0 -78 -18.5 -130.5t-50.5 -85t-75 -46.5t-91 -14q-44 0 -84.5 13t-71 44t-48.5 82.5t-18 129.5v406q0 10 10 10h28q10 0 10 -10v-403q0 -63 13.5 -107t37.5 -72t56 -40.5t69 -12.5q42 0 76 13.5t58.5 42t37.5 72t13 104.5v403q0 10 10 10h28q10 0 10 -10v-399v0
z" />
    <glyph glyph-name="V" unicode="V" horiz-adv-x="550" 
d="M532 667q0 -2 -2 -6l-240 -651q-3 -10 -10 -10h-33q-7 0 -10 10l-218 652q-1 3 -1 5q0 4 3.5 5.5t7.5 1.5h31q7 0 10 -10l194 -609h3l214 609q3 10 10 10h30q4 0 7.5 -1.5t3.5 -5.5z" />
    <glyph glyph-name="W" unicode="W" horiz-adv-x="839" 
d="M819 668q0 -2 -2 -8l-195 -650q-3 -10 -10 -10h-32q-7 0 -10 10l-120 481q-5 20 -10 41.5t-10 40.5q-5 22 -10 43h-2q-5 -21 -11 -43q-5 -19 -11.5 -40.5t-11.5 -41.5l-137 -481q-3 -10 -10 -10h-32q-7 0 -10 10l-172 651q-1 3 -1 6q0 7 9 7h31q7 0 10 -10l151 -601h2
l169 601q3 10 10 10h31q8 0 11 -10l152 -601h2l169 601q3 10 10 10h30q10 0 10 -6z" />
    <glyph glyph-name="X" unicode="X" horiz-adv-x="556" 
d="M514 7q0 -7 -9 -7h-33q-7 0 -13 10l-185 296h-2l-176 -296q-2 -4 -4.5 -7t-7.5 -3h-33q-9 0 -9 7q0 1 0.5 3t2.5 6l204 325l-197 319q-3 4 -3 7q0 7 9 7h34q5 0 7 -2.5t5 -7.5l172 -286h2l178 286q2 4 4.5 7t7.5 3h34q9 0 9 -7q0 -1 -0.5 -3t-2.5 -6l-205 -312l208 -332
q3 -5 3 -7z" />
    <glyph glyph-name="Y" unicode="Y" horiz-adv-x="513" 
d="M503 667q0 -2 -2 -6l-219 -370v-281q0 -10 -10 -10h-28q-10 0 -10 10v282l-207 370q-2 3 -2 5q0 7 9 7h34q5 0 6.5 -2.5t3.5 -7.5l183 -336h2l187 336q5 10 12 10h32q9 0 9 -7z" />
    <glyph glyph-name="Z" unicode="Z" horiz-adv-x="549" 
d="M513 34q0 -1 -0.5 -5t-1.5 -9l-2 -10q-2 -10 -10 -10h-449q-11 0 -11 10v12q0 10 5 17l401 592v3h-368q-11 0 -11 10v20q0 10 11 10h418q11 0 11 -10v-12q0 -9 -5 -17l-402 -592v-3h404q10 0 10 -6z" />
    <glyph glyph-name="bracketleft" unicode="[" horiz-adv-x="265" 
d="M261 -102q-1 -3 -3 -5q-3 -5 -7 -5h-151q-10 0 -10 10v778q0 10 10 10h151q10 0 10 -10v-17q0 -10 -10 -10h-117v-724h117q10 0 10 -10v-17z" />
    <glyph glyph-name="backslash" unicode="\" horiz-adv-x="351" 
d="M353 678q0 -1 -0.5 -2.5t-3.5 -8.5l-310 -697q-5 -10 -12 -10h-27q-7 0 -7 7q0 1 0.5 2.5t3.5 8.5l306 697q5 10 12 10h31q7 0 7 -7z" />
    <glyph glyph-name="bracketright" unicode="]" horiz-adv-x="273" 
d="M12 676q1 2 3 5q5 5 7 5h151q10 0 10 -10v-778q0 -10 -10 -10h-151q-10 0 -10 10v17q0 10 10 10h117v724h-117q-10 0 -10 10v17z" />
    <glyph glyph-name="asciicircum" unicode="^" horiz-adv-x="596" 
d="M83 196q-8 0 -8 4q0 2 1 4.5t2 4.5l196 429q2 5 5 8.5t8 3.5h22q5 0 8 -3.5t5 -8.5l197 -429q3 -8 3 -9q0 -4 -8 -4h-26q-8 0 -13 10l-176 398h-2l-175 -398q-5 -10 -13 -10h-26v0z" />
    <glyph glyph-name="underscore" unicode="_" horiz-adv-x="500" 
d="M500 -85v-3q0 -3 -1 -8l-3 -17q-2 -12 -13 -12h-471q-12 0 -12 10v4q0 2 1 7l3 17q1 12 13 12h471q12 0 12 -10z" />
    <glyph glyph-name="grave" unicode="`" horiz-adv-x="300" 
d="M189 554q0 -4 -5 -4h-24q-5 0 -8.5 3t-5.5 7l-90 102l-2.5 3t-6 6.5t-6 6.5t-2.5 4q0 6 8 6h50q5 0 8 -3t5 -7l67 -105q4 -6 8 -11.5t4 -7.5z" />
    <glyph glyph-name="a" unicode="a" horiz-adv-x="454" 
d="M337 257q-39 0 -82 -4t-79 -17t-59 -38.5t-23 -68.5q0 -26 8 -45t21.5 -31t30.5 -18t36 -6q35 0 62.5 10.5t46 28t28.5 40t10 46.5v103zM394 3q0 -3 -9 -5l-14 -2q-5 -1 -10 -1h-5q-8 0 -8 9l-7 65h-2q-9 -14 -23.5 -28t-34 -25.5t-43.5 -19t-53 -7.5q-36 0 -63 11.5
t-44 30.5t-25.5 42.5t-8.5 47.5q0 42 15.5 74t50 53.5t90.5 33t137 11.5v27q0 21 -3 44.5t-15.5 42.5t-37 31.5t-67.5 12.5q-27 0 -55 -7t-52 -20q-5 -2 -8 -4t-5 -2q-3 0 -6 7l-6 14q-2 6 -2 8q0 5 9 10q34 17 67.5 25.5t62.5 8.5q52 0 84.5 -14.5t50.5 -38t24.5 -54
t6.5 -62.5v-218l8 -87q1 -6 1 -10v-4z" />
    <glyph glyph-name="b" unicode="b" horiz-adv-x="562" 
d="M468 244q0 41 -11 78.5t-32.5 66t-53 45.5t-72.5 17q-31 0 -61 -12t-53 -34t-37.5 -52.5t-14.5 -66.5v-106q0 -33 13.5 -61t36 -48t51.5 -31t61 -11q41 0 73.5 16t54.5 44.5t33.5 68t11.5 86.5zM85 693q0 8 10 11l21 8q6 2 9 2q8 0 8 -7v-317h2q24 47 68 74t108 27
q45 0 83 -18t65 -51t42 -78t15 -99q0 -64 -18.5 -112t-49 -80t-69 -48t-77.5 -16q-115 0 -172 97h-2l-8 -82q0 -9 -7 -9q-2 0 -6 0.5t-10 1.5l-14 2q-8 1 -8 7q0 2 1 11.5t2 16.5l7 85v574z" />
    <glyph glyph-name="c" unicode="c" horiz-adv-x="456" 
d="M414 24q0 -5 -10 -9q-19 -6 -51.5 -15.5t-76.5 -9.5q-52 0 -94.5 18t-72.5 50.5t-46.5 77.5t-16.5 99q0 57 18.5 104.5t51.5 81t78 52t99 18.5q35 0 63 -7t48 -15q10 -4 10 -9q0 -2 -1 -6t-2 -7l-4 -14q-2 -7 -7 -7q-4 0 -12 4q-17 8 -42 14t-57 6q-48 0 -84.5 -17
t-61 -46t-37 -67.5t-12.5 -80.5q0 -47 14 -85.5t39.5 -65.5t60 -42t76.5 -15q35 0 60 6.5t44 14.5q8 4 12 4q5 0 7 -7l5 -16q2 -6 2 -9z" />
    <glyph glyph-name="d" unicode="d" horiz-adv-x="554" 
d="M421 300q0 31 -10.5 59t-31 48t-49.5 32t-65 12q-39 0 -71 -16t-54 -45t-34 -68.5t-12 -85.5q0 -41 10 -78t31 -66t52.5 -46t74.5 -17q30 0 59 11t51 31t35.5 48.5t13.5 64.5v116zM421 693q0 8 10 11l21 8q6 2 9 2q8 0 8 -7v-588l9 -101q1 -8 1 -12v-4q0 -5 -9 -5l-14 -1
q-6 -1 -10 -1h-5q-7 0 -7 9l-8 87h-2q-9 -20 -24.5 -38.5t-37 -32.5t-49 -22.5t-60.5 -8.5q-45 0 -82.5 17.5t-65.5 49.5t-43.5 76.5t-15.5 98.5q0 60 17 108t46.5 82t69 52t83.5 18q31 0 56.5 -7.5t45 -19.5t33.5 -27t22 -31h2v287z" />
    <glyph glyph-name="e" unicode="e" horiz-adv-x="495" 
d="M399 283q0 25 -6 54.5t-22 54.5t-44 42t-71 17q-40 0 -68.5 -16t-48 -40.5t-30 -54t-13.5 -57.5h303zM409 15q-18 -8 -52.5 -16.5t-86.5 -8.5t-93.5 18t-70.5 50t-44.5 76t-15.5 97q0 60 16.5 108t45 82t68 52t86.5 18q59 0 95.5 -24t57 -58.5t27.5 -71.5t7 -63
q0 -29 -17 -29h-339q0 -57 14.5 -98t39.5 -66.5t58.5 -37.5t70.5 -12q45 0 71.5 6t47.5 15q8 4 12 4q5 0 7 -7l4 -13q1 -2 2 -6t1 -5q0 -4 -3.5 -6t-8.5 -4z" />
    <glyph glyph-name="f" unicode="f" horiz-adv-x="275" 
d="M92 478v53q0 39 10 74t29.5 60.5t49.5 40.5t71 15q17 0 31.5 -2.5t25.5 -6.5q4 -2 8 -4.5t4 -7.5q0 -2 -1.5 -4t-2.5 -4l-6 -14q-2 -7 -7 -7q-2 0 -11 3q-19 7 -45 7q-33 0 -54 -13.5t-33.5 -35t-17.5 -48.5t-5 -54v-50h124q4 0 7.5 -0.5t3.5 -5.5q0 -3 -2 -9l-3 -14
q-1 -10 -10 -10h-118v-431q0 -10 -10 -10h-28q-10 0 -10 10v432h-60q-10 0 -10 10v16q0 10 10 10h60z" />
    <glyph glyph-name="g" unicode="g" horiz-adv-x="485" 
d="M477 479q0 -2 -0.5 -5.5t-1.5 -8.5l-3 -20q-2 -8 -9 -8l-95 -8q17 -20 27 -46t10 -58q0 -38 -14 -69t-38.5 -52.5t-56.5 -33t-68 -11.5q-19 0 -37 3q-21 -8 -37 -19.5t-16 -26.5q0 -7 6 -14t21 -14.5t41.5 -15t67.5 -16.5q82 -17 130 -47.5t48 -80.5q0 -34 -17.5 -60
t-48 -44t-71 -27t-85.5 -9t-84 8.5t-67.5 24t-44.5 37.5t-16 49q0 70 128 137q-34 15 -45.5 29t-11.5 28q0 19 14.5 36.5t48.5 35.5q-45 19 -73 57.5t-28 94.5q0 38 14.5 69t38.5 52.5t56 33t68 11.5q69 0 118 -40l112 35q7 3 12 3q7 0 7 -10zM358 325q0 27 -9.5 51.5
t-26.5 43t-41 29t-53 10.5t-53 -10.5t-41 -29t-26.5 -43t-9.5 -51.5t9.5 -51t26.5 -42.5t41 -29t53 -10.5t53 10.5t41 29t26.5 42.5t9.5 51zM404 -76q0 11 -6 23t-21 23.5t-40 21.5t-63 18q-45 10 -65 15.5t-31 8.5q-51 -25 -81 -52t-30 -62q0 -23 12.5 -40.5t34.5 -29.5
t51.5 -18t64.5 -6q36 0 68 6t55.5 18t37 30.5t13.5 43.5z" />
    <glyph glyph-name="h" unicode="h" horiz-adv-x="540" 
d="M86 697q0 4 3.5 6.5t6.5 3.5l19 5q8 2 11 2q8 0 8 -7v-313h2q23 45 67 71t95 26q17 0 45 -5t55 -24t47 -57.5t20 -105.5v-289q0 -10 -10 -10h-28q-10 0 -10 10v284q0 32 -7 60.5t-22.5 49.5t-40.5 33t-62 12q-33 0 -60.5 -11.5t-47.5 -31t-31.5 -46.5t-11.5 -57v-293
q0 -10 -10 -10h-28q-10 0 -10 10v687z" />
    <glyph glyph-name="i" unicode="i" horiz-adv-x="219" 
d="M150 616q0 -20 -11 -33.5t-31 -13.5q-17 0 -28 13.5t-11 33.5q0 19 11 33t28 14q20 0 31 -14t11 -33zM86 467q0 8 10 11l21 8q6 2 9 2q8 0 8 -7v-471q0 -10 -10 -10h-28q-10 0 -10 10v457z" />
    <glyph glyph-name="j" unicode="j" horiz-adv-x="224" 
d="M92 467q0 8 10 11l21 8q6 2 9 2q8 0 8 -7v-448q0 -54 -6.5 -95t-23.5 -70.5t-47 -47.5t-76 -27q-2 -1 -5 -1h-4q-7 0 -9 11l-1 6q-1 4 -1.5 9t-0.5 6q0 5 7 7q40 8 63.5 22.5t36 41t16 67.5t3.5 101v404zM156 616q0 -20 -11 -33.5t-31 -13.5q-17 0 -28 13.5t-11 33.5
q0 19 11 33t28 14q20 0 31 -14t11 -33z" />
    <glyph glyph-name="k" unicode="k" horiz-adv-x="447" 
d="M133 249l38 43l170 178q5 6 8.5 8t10.5 2h30q10 0 10 -5q0 -4 -4 -8l-181 -186l211 -268q3 -4 3 -8q0 -5 -9 -5h-30q-7 0 -11 2t-9 8l-188 242l-49 -35v-207q0 -10 -10 -10h-28q-10 0 -10 10v683q0 8 10 11l21 8q6 2 9 2q8 0 8 -7v-458z" />
    <glyph glyph-name="l" unicode="l" horiz-adv-x="220" 
d="M86 693q0 8 10 11l21 8q6 2 9 2q8 0 8 -7v-697q0 -10 -10 -10h-28q-10 0 -10 10v683z" />
    <glyph glyph-name="m" unicode="m" horiz-adv-x="818" 
d="M78 452q-1 8 -1.5 15t-0.5 8q0 6 7 7l12 1q8 1 11 1h6q5 0 6.5 -2t2.5 -6l9 -80h2q23 41 60 68t96 27q50 0 86 -29.5t52 -74.5h2q10 21 22.5 37.5t26.5 27.5q23 19 49.5 29t64.5 10q18 0 44.5 -5.5t51.5 -25.5t43 -59.5t18 -107.5v-283q0 -10 -10 -10h-27q-11 0 -11 10
v279q0 162 -125 162q-28 0 -51.5 -11.5t-41.5 -30.5t-28.5 -42.5t-12.5 -48.5v-308q0 -10 -10 -10h-27q-11 0 -11 10v301q0 65 -30 102.5t-89 37.5q-29 0 -53.5 -12.5t-43.5 -33t-30 -46.5t-13 -53v-296q0 -10 -10 -10h-27q-11 0 -11 10v367z" />
    <glyph glyph-name="n" unicode="n" horiz-adv-x="535" 
d="M78 452q-1 8 -1.5 15t-0.5 8q0 6 7 7l12 1q8 1 11 1h6q5 0 6.5 -2t2.5 -6l9 -82h2q20 41 63 69t102 28q17 0 45.5 -5t55.5 -24t47 -58t20 -106v-288q0 -10 -10 -10h-27q-11 0 -11 10v284q0 33 -7 61.5t-22.5 49.5t-41 33.5t-62.5 12.5q-31 0 -58 -11t-47.5 -30
t-32.5 -45.5t-12 -56.5v-298q0 -10 -10 -10h-27q-11 0 -11 10v365z" />
    <glyph glyph-name="o" unicode="o" horiz-adv-x="542" 
d="M496 236q0 -67 -20.5 -114t-53 -76.5t-72.5 -43t-80 -13.5q-47 0 -87.5 17.5t-71 49.5t-48 78t-17.5 102q0 61 18.5 109t49 80t71 49t85.5 17q50 0 91.5 -19t71.5 -53t46.5 -81t16.5 -102zM448 236q0 33 -10 70.5t-31.5 70t-55 53.5t-81.5 21q-46 0 -79.5 -19t-55 -50
t-31.5 -69t-10 -77q0 -45 13.5 -83t37.5 -65.5t56 -43t69 -15.5t69.5 15t56.5 42.5t38 65.5t14 84z" />
    <glyph glyph-name="p" unicode="p" horiz-adv-x="562" 
d="M468 246q0 40 -11 77.5t-32.5 65.5t-53 45t-72.5 17q-30 0 -60 -12t-53.5 -34t-38 -51.5t-14.5 -65.5v-104q0 -34 13 -62.5t35.5 -49t51.5 -32t62 -11.5q41 0 73.5 16t54.5 44.5t33.5 68.5t11.5 88zM516 248q0 -64 -18 -112.5t-48 -81t-69.5 -49t-82.5 -16.5
q-52 0 -95 22.5t-68 66.5h-2v-262q0 -7 -10 -10l-17 -4q-4 -1 -8.5 -2t-7.5 -1q-5 0 -5 7v540l-8 104q-1 8 -1.5 15t-0.5 8q0 6 7 7l21 3q5 1 9 1q5 0 6.5 -2t2.5 -6l9 -87h2q26 48 70.5 75t107.5 27q46 0 84 -18t65 -50.5t42 -77t15 -97.5z" />
    <glyph glyph-name="q" unicode="q" horiz-adv-x="552" 
d="M421 301q0 29 -11 56t-31 48t-48.5 33.5t-64.5 12.5q-39 0 -71 -15.5t-54.5 -44t-34.5 -68t-12 -86.5q0 -40 9.5 -77.5t30 -66.5t52.5 -46.5t76 -17.5q30 0 58.5 11.5t51 32t36 47.5t13.5 58v123zM469 348v-532q0 -7 -10 -10l-17 -4q-4 -1 -8.5 -2t-7.5 -1q-5 0 -5 7v277
h-2q-18 -36 -60 -65t-106 -29q-44 0 -82 18t-66 50t-43.5 76.5t-15.5 97.5q0 69 20.5 118.5t52.5 81t71 46t77 14.5q31 0 56.5 -8t45 -21t33.5 -29.5t22 -34.5h2l7 77q0 9 7 9q1 0 8 -1t12 -2l9 -1q8 -1 8 -11z" />
    <glyph glyph-name="r" unicode="r" horiz-adv-x="327" 
d="M75 452q-1 8 -1.5 15t-0.5 8q0 6 7 7l12 1q8 1 11 1h6q5 0 6.5 -2t2.5 -6l9 -93h3q16 46 51.5 77t84.5 31q13 0 24 -3q7 -2 10 -3.5t3 -7.5q0 -2 -2 -12l-3 -17q-2 -7 -6 -7q-3 0 -12 2t-17 2q-32 0 -56 -15t-40.5 -39t-25 -54.5t-8.5 -61.5v-265q0 -10 -10 -10h-27
q-11 0 -11 10v333z" />
    <glyph glyph-name="s" unicode="s" horiz-adv-x="383" 
d="M74 58q20 -11 45.5 -19.5t54.5 -8.5q57 0 84.5 26.5t27.5 64.5q0 40 -24.5 64.5t-76.5 44.5q-60 23 -91 55t-31 76q0 26 10 49.5t29 41.5t46.5 28.5t62.5 10.5q28 0 52.5 -6.5t42.5 -16.5q8 -4 8 -12q0 -3 -2 -7l-9 -20q-1 -4 -7 -4q-2 0 -3 1t-3 2q-14 8 -35.5 15.5
t-51.5 7.5q-46 0 -69.5 -25t-23.5 -58q0 -19 6.5 -32.5t19 -25t31 -21t42.5 -19.5q59 -23 91.5 -55.5t32.5 -87.5q0 -62 -44 -99.5t-118 -37.5q-32 0 -61.5 7.5t-52.5 20.5q-3 2 -6 5t-3 8q0 3 2 7l9 20q1 4 7 4q2 0 4 -1.5t4 -2.5z" />
    <glyph glyph-name="t" unicode="t" horiz-adv-x="319" 
d="M104 557q0 8 4 11.5t9 5.5l11 4q15 5 18 5q4 0 5 -3t1 -6v-94h134q8 0 8 -4q0 -2 -0.5 -5.5t-1.5 -8.5l-2 -11q-2 -10 -10 -10h-128v-312q0 -46 16 -72.5t54 -26.5h51q7 0 8 -6l1 -7q1 -5 1 -8v-4q0 -3 -3 -4.5l-5 -2.5q-24 -8 -59 -8q-55 0 -82 33q-17 19 -23.5 48.5
t-6.5 66.5v304h-71q-10 0 -10 10v18q0 10 10 10h71v77z" />
    <glyph glyph-name="u" unicode="u" horiz-adv-x="529" 
d="M400 86h-2q-9 -17 -24 -34t-35.5 -31t-46.5 -23t-58 -9q-23 0 -51.5 7.5t-53.5 30.5t-42 64.5t-17 109.5v269q0 10 10 10h28q10 0 10 -10v-266q0 -39 6.5 -71t21.5 -54.5t39 -35t60 -12.5q34 0 61.5 12t47.5 32.5t31 46.5t11 54v294q0 10 10 10h28q10 0 10 -10v-356
l11 -97q1 -7 1 -9v-3q0 -3 -2.5 -3.5t-8.5 -2.5l-16 -3q-5 -1 -8 -1.5t-4 -0.5q-6 0 -8 12z" />
    <glyph glyph-name="v" unicode="v" horiz-adv-x="462" 
d="M232 54l157 416q3 10 10 10h33q9 0 9 -6q0 -3 -1 -5l-186 -459q-2 -4 -4 -7t-7 -3h-29q-7 0 -10 10l-180 459q-1 2 -1 5q0 6 9 6h33q7 0 10 -10l155 -416h2z" />
    <glyph glyph-name="w" unicode="w" horiz-adv-x="732" 
d="M657 470q3 10 10 10h30q9 0 9 -6q0 -2 -1 -5l-151 -459q-2 -4 -4 -7t-7 -3h-29q-7 0 -10 10l-137 421h-2l-142 -421q-2 -4 -4 -7t-7 -3h-31q-7 0 -10 10l-140 459q-1 3 -1 5q0 6 9 6h31q7 0 10 -10l119 -413h2l141 413q3 10 10 10h30q5 0 7 -3t4 -7l136 -413h2z" />
    <glyph glyph-name="x" unicode="x" horiz-adv-x="439" 
d="M76 9q-6 -9 -12 -9h-33q-9 0 -9 6q0 3 3 7l167 232l-157 223q-2 4 -2 6q0 6 9 6h33q6 0 12 -9l130 -190h2l132 190q6 9 12 9h32q9 0 9 -6q0 -3 -3 -7l-158 -221l165 -234q2 -4 2 -6q0 -6 -9 -6h-34q-6 0 -12 9l-139 202h-2z" />
    <glyph glyph-name="y" unicode="y" horiz-adv-x="450" 
d="M21 468q-1 2 -1 6q0 6 9 8l16 3q8 2 13 2q7 0 8 -2.5t3 -6.5l160 -411h2l150 403q3 10 10 10h33q9 0 9 -6v-4q0 -2 -2 -5l-143 -368q-28 -71 -52 -128.5t-51 -97.5t-59 -61.5t-76 -21.5q-9 0 -11 10l-4 15q-1 5 -1 8q0 7 8 7q32 2 55 16t41.5 37t34.5 55t33 71z" />
    <glyph glyph-name="z" unicode="z" horiz-adv-x="413" 
d="M389 39q8 0 8 -7q0 -3 -2 -13l-2 -10q-2 -9 -10 -9h-351q-11 0 -11 10v11q0 10 8 20l306 398v2h-282q-11 0 -11 10v19q0 10 11 10h330q11 0 11 -10v-12q0 -5 -2.5 -10.5t-5.5 -9.5l-305 -397v-2h308z" />
    <glyph glyph-name="braceleft" unicode="{" horiz-adv-x="265" 
d="M245 -102q0 -2 -2.5 -6t-9.5 -4q-29 0 -55 7t-45 23.5t-30 42.5t-11 64q0 44 9.5 84.5t9.5 82.5q0 12 -2.5 26t-10 25.5t-22 19t-38.5 7.5q-4 0 -6 5l-3 17q-1 5 -1 6v2q0 5 6 5q25 0 40.5 7t23.5 18t10.5 25t2.5 29q0 45 -9.5 87.5t-9.5 85.5q0 34 11 58.5t29.5 40
t44.5 23t56 7.5q12 0 12 -9v-19q0 -4 -3.5 -6.5t-14.5 -2.5q-51 0 -71 -25t-20 -71q0 -42 9 -81t9 -79q0 -44 -17.5 -69.5t-46.5 -34.5v-2q29 -8 46.5 -35t17.5 -69q0 -41 -9 -80t-9 -82q0 -47 22 -71.5t69 -24.5q11 0 14.5 -2t3.5 -6v-19v0z" />
    <glyph glyph-name="bar" unicode="|" horiz-adv-x="212" 
d="M127 -240q0 -10 -10 -10h-23q-10 0 -10 10v980q0 10 10 10h23q10 0 10 -10v-980v0z" />
    <glyph glyph-name="braceright" unicode="}" horiz-adv-x="265" 
d="M246 274q0 -5 -6 -5q-26 0 -41 -7t-23 -18t-10.5 -25t-2.5 -29q0 -45 9.5 -87.5t9.5 -85.5q0 -34 -11 -58.5t-29.5 -40t-44.5 -23t-56 -7.5q-12 0 -12 9v19q0 4 3.5 6.5t14.5 2.5q51 0 71 25t20 71q0 42 -9 81t-9 79q0 44 17.5 69.5t46.5 34.5v2q-29 8 -46.5 35t-17.5 69
q0 41 9 80t9 82q0 47 -22 71.5t-69 24.5q-11 0 -14.5 2t-3.5 6v19q0 2 2.5 6t9.5 4q29 0 55 -7t45 -23.5t30 -42.5t11 -64q0 -44 -9.5 -84.5t-9.5 -82.5q0 -12 2.5 -26t10 -25.5t22 -19t38.5 -7.5q4 0 6 -5l3 -17q1 -5 1 -6v-2z" />
    <glyph glyph-name="asciitilde" unicode="~" horiz-adv-x="596" 
d="M543 339q0 -56 -31 -88t-76 -32q-14 0 -27.5 2t-30 7.5t-37 14t-48.5 20.5q-38 17 -71 31t-65 14q-30 0 -48.5 -20t-18.5 -57q0 -10 -10 -10h-18q-10 0 -10 10q0 56 31 88t76 32q14 0 27.5 -2t30 -7.5t37 -14t48.5 -20.5q38 -17 71 -31t65 -14q30 0 48.5 20t18.5 57
q0 10 10 10h18q10 0 10 -10z" />
    <glyph glyph-name="afii10017" unicode="&#xc0;" horiz-adv-x="595" 
d="M300 620l-118 -344h237l-117 344h-2zM321 674q7 0 10 -10l232 -652q2 -4 2 -5q0 -4 -3.5 -5.5t-7.5 -1.5h-29q-7 0 -10 10l-81 226h-267l-80 -226q-3 -10 -10 -10h-29q-10 0 -10 4t1 6l234 654q3 10 10 10h38z" />
    <glyph glyph-name="afii10017" unicode="&#x410;" horiz-adv-x="595" 
d="M300 620l-118 -344h237l-117 344h-2zM321 674q7 0 10 -10l232 -652q2 -4 2 -5q0 -4 -3.5 -5.5t-7.5 -1.5h-29q-7 0 -10 10l-81 226h-267l-80 -226q-3 -10 -10 -10h-29q-10 0 -10 4t1 6l234 654q3 10 10 10h38z" />
    <glyph glyph-name="afii10018" unicode="&#xc1;" horiz-adv-x="521" 
d="M424 207q0 46 -16 78.5t-45.5 53t-71.5 30t-94 9.5h-63v-334q17 -4 44 -7t53 -3q41 0 76 11t61 32.5t41 54t15 75.5zM473 209q0 -57 -18 -97.5t-51 -66.5t-79 -38t-101 -12q-32 0 -65.5 3.5t-56.5 7.5q-5 1 -10.5 4.5t-5.5 10.5v643q0 10 11 10h330q5 0 7.5 -0.5
t2.5 -5.5v-5q0 -3 -2 -9l-2 -10q-2 -10 -10 -10h-289v-218h68q60 0 109.5 -11.5t85.5 -36t56 -64t20 -95.5z" />
    <glyph glyph-name="afii10018" unicode="&#x411;" horiz-adv-x="521" 
d="M424 207q0 46 -16 78.5t-45.5 53t-71.5 30t-94 9.5h-63v-334q17 -4 44 -7t53 -3q41 0 76 11t61 32.5t41 54t15 75.5zM473 209q0 -57 -18 -97.5t-51 -66.5t-79 -38t-101 -12q-32 0 -65.5 3.5t-56.5 7.5q-5 1 -10.5 4.5t-5.5 10.5v643q0 10 11 10h330q5 0 7.5 -0.5
t2.5 -5.5v-5q0 -3 -2 -9l-2 -10q-2 -10 -10 -10h-289v-218h68q60 0 109.5 -11.5t85.5 -36t56 -64t20 -95.5z" />
    <glyph glyph-name="afii10019" unicode="&#xc2;" horiz-adv-x="515" 
d="M86 644q0 11 7 15.5t12 5.5q11 3 27 5.5t34 4.5t36.5 3t34.5 1q47 0 84.5 -9t64 -28.5t40.5 -51t14 -77.5q0 -52 -32.5 -92.5t-83.5 -57.5v-3q21 -5 46 -17t46.5 -32.5t36 -51t14.5 -71.5q0 -56 -18.5 -93t-51.5 -59t-79 -31.5t-100 -9.5q-32 0 -59.5 3t-54.5 9
q-5 2 -11.5 5.5t-6.5 14.5v617zM134 378h98q37 0 66.5 10t50 28t31.5 42t11 52q0 71 -41 100t-116 29q-33 0 -59.5 -3.5t-40.5 -6.5v-251zM134 44q15 -3 43 -6t55 -3q39 0 72.5 7.5t58.5 25.5t39.5 47t14.5 72q0 40 -16 68.5t-43 47t-63 27.5t-76 9h-85v-295z" />
    <glyph glyph-name="afii10019" unicode="&#x412;" horiz-adv-x="515" 
d="M86 644q0 11 7 15.5t12 5.5q11 3 27 5.5t34 4.5t36.5 3t34.5 1q47 0 84.5 -9t64 -28.5t40.5 -51t14 -77.5q0 -52 -32.5 -92.5t-83.5 -57.5v-3q21 -5 46 -17t46.5 -32.5t36 -51t14.5 -71.5q0 -56 -18.5 -93t-51.5 -59t-79 -31.5t-100 -9.5q-32 0 -59.5 3t-54.5 9
q-5 2 -11.5 5.5t-6.5 14.5v617zM134 378h98q37 0 66.5 10t50 28t31.5 42t11 52q0 71 -41 100t-116 29q-33 0 -59.5 -3.5t-40.5 -6.5v-251zM134 44q15 -3 43 -6t55 -3q39 0 72.5 7.5t58.5 25.5t39.5 47t14.5 72q0 40 -16 68.5t-43 47t-63 27.5t-76 9h-85v-295z" />
    <glyph glyph-name="afii10020" unicode="&#xc3;" horiz-adv-x="472" 
d="M423 668v-5q0 -3 -2 -9l-2 -10q-2 -10 -10 -10h-275v-624q0 -10 -10 -10h-27q-11 0 -11 10v654q0 10 11 10h316q5 0 7.5 -0.5t2.5 -5.5z" />
    <glyph glyph-name="afii10020" unicode="&#x413;" horiz-adv-x="472" 
d="M423 668v-5q0 -3 -2 -9l-2 -10q-2 -10 -10 -10h-275v-624q0 -10 -10 -10h-27q-11 0 -11 10v654q0 10 11 10h316q5 0 7.5 -0.5t2.5 -5.5z" />
    <glyph glyph-name="afii10021" unicode="&#xc4;" horiz-adv-x="613" 
d="M568 -150q0 -10 -10 -10h-21q-11 0 -11 10v150h-464v-150q0 -10 -11 -10h-21q-10 0 -10 10v180q0 10 10 10h27q63 109 91 238t35 266l6 121q0 9 10 9h304q10 0 10 -10v-624h45q10 0 10 -10v-180v0zM465 634h-232l-5 -98q-7 -143 -35.5 -269.5t-86.5 -226.5h359v594z" />
    <glyph glyph-name="afii10021" unicode="&#x414;" horiz-adv-x="613" 
d="M568 -150q0 -10 -10 -10h-21q-11 0 -11 10v150h-464v-150q0 -10 -11 -10h-21q-10 0 -10 10v180q0 10 10 10h27q63 109 91 238t35 266l6 121q0 9 10 9h304q10 0 10 -10v-624h45q10 0 10 -10v-180v0zM465 634h-232l-5 -98q-7 -143 -35.5 -269.5t-86.5 -226.5h359v594z" />
    <glyph glyph-name="afii10022" unicode="&#xc5;" horiz-adv-x="476" 
d="M134 634v-259h248q5 0 8 -0.5t3 -5.5q0 -2 -2 -10l-5 -16q-3 -8 -9 -8h-243v-295h291q10 0 10 -10v-20q0 -10 -10 -10h-328q-11 0 -11 10v654q0 10 11 10h316q5 0 8 -0.5t3 -5.5q0 -2 -2 -10l-5 -16q-3 -8 -9 -8h-274z" />
    <glyph glyph-name="afii10022" unicode="&#x415;" horiz-adv-x="476" 
d="M134 634v-259h248q5 0 8 -0.5t3 -5.5q0 -2 -2 -10l-5 -16q-3 -8 -9 -8h-243v-295h291q10 0 10 -10v-20q0 -10 -10 -10h-328q-11 0 -11 10v654q0 10 11 10h316q5 0 8 -0.5t3 -5.5q0 -2 -2 -10l-5 -16q-3 -8 -9 -8h-274z" />
    <glyph glyph-name="afii10024" unicode="&#xc6;" horiz-adv-x="766" 
d="M743 5q0 -5 -9 -5h-34q-7 0 -11 2.5t-9 7.5l-269 318h-5v-318q0 -10 -10 -10h-28q-10 0 -10 10v318h-5l-269 -318q-5 -5 -9 -7.5t-11 -2.5h-34q-9 0 -9 5q0 3 3 8l291 337l-274 311q-4 4 -4 8q0 5 10 5h30q11 0 20 -10l259 -302h2v302q0 10 10 10h28q10 0 10 -10v-302h2
l259 302q9 10 20 10h30q10 0 10 -5q0 -4 -4 -8l-275 -311l292 -337q3 -5 3 -8z" />
    <glyph glyph-name="afii10024" unicode="&#x416;" horiz-adv-x="766" 
d="M743 5q0 -5 -9 -5h-34q-7 0 -11 2.5t-9 7.5l-269 318h-5v-318q0 -10 -10 -10h-28q-10 0 -10 10v318h-5l-269 -318q-5 -5 -9 -7.5t-11 -2.5h-34q-9 0 -9 5q0 3 3 8l291 337l-274 311q-4 4 -4 8q0 5 10 5h30q11 0 20 -10l259 -302h2v302q0 10 10 10h28q10 0 10 -10v-302h2
l259 302q9 10 20 10h30q10 0 10 -5q0 -4 -4 -8l-275 -311l292 -337q3 -5 3 -8z" />
    <glyph glyph-name="afii10025" unicode="&#xc7;" horiz-adv-x="470" 
d="M53 22q-4 2 -8.5 4t-4.5 7q0 2 1 5t2 5l5 13q3 9 8 9q4 0 14 -5q29 -14 62 -23t67 -9q43 0 75 12t54 32.5t33 48t11 59.5q0 40 -16.5 69t-42.5 48t-57.5 28t-61.5 9h-48q-8 0 -10 10l-2 11q-1 5 -1 6v3q0 8 9 8h52q30 0 59.5 12t52 32.5t36.5 47t14 56.5q0 31 -11 55
t-29.5 39.5t-44 23.5t-54.5 8q-38 0 -68.5 -10.5t-56.5 -25.5q-4 -2 -7 -4t-5 -2q-5 0 -7 6l-7 15q-2 4 -2 6q0 8 10 13q32 20 67.5 30.5t82.5 10.5q37 0 70 -10t57.5 -30t39 -50t14.5 -70q0 -31 -12.5 -58.5t-33.5 -49.5t-48.5 -37.5t-57.5 -22.5v-2q38 -4 69 -19t53.5 -38
t34.5 -53t12 -64q0 -50 -18 -86t-49 -59.5t-71.5 -35t-85.5 -11.5q-38 0 -74.5 7.5t-70.5 25.5z" />
    <glyph glyph-name="afii10025" unicode="&#x417;" horiz-adv-x="470" 
d="M53 22q-4 2 -8.5 4t-4.5 7q0 2 1 5t2 5l5 13q3 9 8 9q4 0 14 -5q29 -14 62 -23t67 -9q43 0 75 12t54 32.5t33 48t11 59.5q0 40 -16.5 69t-42.5 48t-57.5 28t-61.5 9h-48q-8 0 -10 10l-2 11q-1 5 -1 6v3q0 8 9 8h52q30 0 59.5 12t52 32.5t36.5 47t14 56.5q0 31 -11 55
t-29.5 39.5t-44 23.5t-54.5 8q-38 0 -68.5 -10.5t-56.5 -25.5q-4 -2 -7 -4t-5 -2q-5 0 -7 6l-7 15q-2 4 -2 6q0 8 10 13q32 20 67.5 30.5t82.5 10.5q37 0 70 -10t57.5 -30t39 -50t14.5 -70q0 -31 -12.5 -58.5t-33.5 -49.5t-48.5 -37.5t-57.5 -22.5v-2q38 -4 69 -19t53.5 -38
t34.5 -53t12 -64q0 -50 -18 -86t-49 -59.5t-71.5 -35t-85.5 -11.5q-38 0 -74.5 7.5t-70.5 25.5z" />
    <glyph glyph-name="afii10026" unicode="&#xc8;" horiz-adv-x="648" 
d="M128 61q11 18 22 38q10 17 23 38.5t27 44.5l310 483q5 9 14 9h27q10 0 10 -10v-654q0 -10 -10 -10h-26q-10 0 -10 10v421q0 28 0.5 60t2.5 59q1 32 3 63h-1q-11 -19 -22 -39q-10 -17 -23 -38.5t-27 -43.5l-310 -483q-5 -9 -14 -9h-27q-10 0 -10 10v654q0 10 10 10h26
q10 0 10 -10v-421q0 -28 -1 -60t-3 -59q-2 -32 -3 -63h2v0z" />
    <glyph glyph-name="afii10026" unicode="&#x418;" horiz-adv-x="648" 
d="M128 61q11 18 22 38q10 17 23 38.5t27 44.5l310 483q5 9 14 9h27q10 0 10 -10v-654q0 -10 -10 -10h-26q-10 0 -10 10v421q0 28 0.5 60t2.5 59q1 32 3 63h-1q-11 -19 -22 -39q-10 -17 -23 -38.5t-27 -43.5l-310 -483q-5 -9 -14 -9h-27q-10 0 -10 10v654q0 10 10 10h26
q10 0 10 -10v-421q0 -28 -1 -60t-3 -59q-2 -32 -3 -63h2v0z" />
    <glyph glyph-name="afii10027" unicode="&#xc9;" horiz-adv-x="648" 
d="M128 61q11 18 22 38q10 17 23 38.5t27 44.5l310 483q5 9 14 9h27q10 0 10 -10v-654q0 -10 -10 -10h-26q-10 0 -10 10v421q0 28 0.5 60t2.5 59q1 32 3 63h-1q-11 -19 -22 -39q-10 -17 -23 -38.5t-27 -43.5l-310 -483q-5 -9 -14 -9h-27q-10 0 -10 10v654q0 10 10 10h26
q10 0 10 -10v-421q0 -28 -1 -60t-3 -59q-2 -32 -3 -63h1h1zM450 812q0 -19 -8 -37.5t-24 -33t-40 -23.5t-55 -9t-55 9t-40 23.5t-24 33t-8 37.5q0 10 10 10h22q10 0 10 -10q0 -32 24.5 -51.5t60.5 -19.5t60.5 19.5t24.5 51.5q0 10 10 10h22q10 0 10 -10z" />
    <glyph glyph-name="afii10027" unicode="&#x419;" horiz-adv-x="648" 
d="M128 61q11 18 22 38q10 17 23 38.5t27 44.5l310 483q5 9 14 9h27q10 0 10 -10v-654q0 -10 -10 -10h-26q-10 0 -10 10v421q0 28 0.5 60t2.5 59q1 32 3 63h-1q-11 -19 -22 -39q-10 -17 -23 -38.5t-27 -43.5l-310 -483q-5 -9 -14 -9h-27q-10 0 -10 10v654q0 10 10 10h26
q10 0 10 -10v-421q0 -28 -1 -60t-3 -59q-2 -32 -3 -63h1h1zM450 812q0 -19 -8 -37.5t-24 -33t-40 -23.5t-55 -9t-55 9t-40 23.5t-24 33t-8 37.5q0 10 10 10h22q10 0 10 -10q0 -32 24.5 -51.5t60.5 -19.5t60.5 19.5t24.5 51.5q0 10 10 10h22q10 0 10 -10z" />
    <glyph glyph-name="afii10028" unicode="&#xca;" horiz-adv-x="513" 
d="M177 350l311 -337q3 -5 3 -8q0 -5 -9 -5h-34q-7 0 -11 2.5t-9 7.5l-289 315h-5v-315q0 -10 -10 -10h-28q-10 0 -10 10v654q0 10 10 10h28q10 0 10 -10v-301h2l279 301q9 10 20 10h30q10 0 10 -5q0 -4 -4 -8z" />
    <glyph glyph-name="afii10028" unicode="&#x41a;" horiz-adv-x="513" 
d="M177 350l311 -337q3 -5 3 -8q0 -5 -9 -5h-34q-7 0 -11 2.5t-9 7.5l-289 315h-5v-315q0 -10 -10 -10h-28q-10 0 -10 10v654q0 10 10 10h28q10 0 10 -10v-301h2l279 301q9 10 20 10h30q10 0 10 -5q0 -4 -4 -8z" />
    <glyph glyph-name="afii10029" unicode="&#xcb;" horiz-adv-x="574" 
d="M34 -4q-2 -1 -7 -1.5t-7 -0.5q-9 0 -10 9l-2 14q-1 5 -1 7v3q0 5 3.5 5.5t9.5 2.5q44 10 69 32t38.5 63.5t19.5 106t14 160.5l21 267q0 10 10 10h285q10 0 10 -10v-654q0 -10 -10 -10h-28q-10 0 -10 10v624h-215l-18 -248q-8 -108 -16 -178.5t-25.5 -114.5t-48 -65.5
t-82.5 -31.5z" />
    <glyph glyph-name="afii10029" unicode="&#x41b;" horiz-adv-x="574" 
d="M34 -4q-2 -1 -7 -1.5t-7 -0.5q-9 0 -10 9l-2 14q-1 5 -1 7v3q0 5 3.5 5.5t9.5 2.5q44 10 69 32t38.5 63.5t19.5 106t14 160.5l21 267q0 10 10 10h285q10 0 10 -10v-654q0 -10 -10 -10h-28q-10 0 -10 10v624h-215l-18 -248q-8 -108 -16 -178.5t-25.5 -114.5t-48 -65.5
t-82.5 -31.5z" />
    <glyph glyph-name="afii10030" unicode="&#xcc;" horiz-adv-x="788" 
d="M639 618l-15 -45l-14 -38t-12 -33l-185 -492q-3 -10 -10 -10h-27q-7 0 -10 10l-175 492q-6 17 -13 37.5t-12 37.5q-7 20 -13 41h-2q-1 -29 -2 -55l-2 -46t-2 -37l-26 -470q0 -10 -10 -10h-29q-10 0 -10 8v9t1 13l45 634q1 10 10 10h35q8 0 10.5 -2.5t5.5 -10.5l163 -454
q5 -14 13.5 -37t16.5 -46q10 -27 21 -57h3q10 30 20 57l16 46t13 36l172 455q3 8 5.5 10.5t10.5 2.5h37q10 0 10 -10l40 -634q1 -9 1 -15v-7q0 -8 -9 -8h-30q-10 0 -10 10l-24 470q-1 15 -1.5 38t-1.5 46q-1 26 -2 54h-2z" />
    <glyph glyph-name="afii10030" unicode="&#x41c;" horiz-adv-x="788" 
d="M639 618l-15 -45l-14 -38t-12 -33l-185 -492q-3 -10 -10 -10h-27q-7 0 -10 10l-175 492q-6 17 -13 37.5t-12 37.5q-7 20 -13 41h-2q-1 -29 -2 -55l-2 -46t-2 -37l-26 -470q0 -10 -10 -10h-29q-10 0 -10 8v9t1 13l45 634q1 10 10 10h35q8 0 10.5 -2.5t5.5 -10.5l163 -454
q5 -14 13.5 -37t16.5 -46q10 -27 21 -57h3q10 30 20 57l16 46t13 36l172 455q3 8 5.5 10.5t10.5 2.5h37q10 0 10 -10l40 -634q1 -9 1 -15v-7q0 -8 -9 -8h-30q-10 0 -10 10l-24 470q-1 15 -1.5 38t-1.5 46q-1 26 -2 54h-2z" />
    <glyph glyph-name="afii10031" unicode="&#xcd;" horiz-adv-x="627" 
d="M542 10q0 -10 -10 -10h-28q-10 0 -10 10v327h-360v-327q0 -10 -10 -10h-28q-10 0 -10 10v654q0 10 10 10h28q10 0 10 -10v-287h360v287q0 10 10 10h28q10 0 10 -10v-654z" />
    <glyph glyph-name="afii10031" unicode="&#x41d;" horiz-adv-x="627" 
d="M542 10q0 -10 -10 -10h-28q-10 0 -10 10v327h-360v-327q0 -10 -10 -10h-28q-10 0 -10 10v654q0 10 10 10h28q10 0 10 -10v-287h360v287q0 10 10 10h28q10 0 10 -10v-654z" />
    <glyph glyph-name="afii10032" unicode="&#xce;" horiz-adv-x="681" 
d="M639 337q0 -89 -25 -154.5t-67 -108.5t-96.5 -64t-112.5 -21t-112.5 21t-96.5 64t-67 108.5t-25 154.5t25 154.5t67 108.5t96.5 64t112.5 21q64 0 119 -25t95.5 -71t63.5 -110t23 -142zM589 337q0 53 -15.5 108t-46.5 99.5t-78.5 72.5t-110.5 28q-60 0 -106.5 -24.5
t-79 -66.5t-49 -98t-16.5 -119t16.5 -119t49 -98t79 -66.5t106.5 -24.5t106.5 24.5t79 66.5t49 98t16.5 119z" />
    <glyph glyph-name="afii10032" unicode="&#x41e;" horiz-adv-x="681" 
d="M639 337q0 -89 -25 -154.5t-67 -108.5t-96.5 -64t-112.5 -21t-112.5 21t-96.5 64t-67 108.5t-25 154.5t25 154.5t67 108.5t96.5 64t112.5 21q64 0 119 -25t95.5 -71t63.5 -110t23 -142zM589 337q0 53 -15.5 108t-46.5 99.5t-78.5 72.5t-110.5 28q-60 0 -106.5 -24.5
t-79 -66.5t-49 -98t-16.5 -119t16.5 -119t49 -98t79 -66.5t106.5 -24.5t106.5 24.5t79 66.5t49 98t16.5 119z" />
    <glyph glyph-name="afii10033" unicode="&#xcf;" horiz-adv-x="618" 
d="M485 634h-351v-624q0 -10 -10 -10h-28q-10 0 -10 10v654q0 10 10 10h427q10 0 10 -10v-654q0 -10 -10 -10h-28q-10 0 -10 10v624z" />
    <glyph glyph-name="afii10033" unicode="&#x41f;" horiz-adv-x="618" 
d="M485 634h-351v-624q0 -10 -10 -10h-28q-10 0 -10 10v654q0 10 10 10h427q10 0 10 -10v-654q0 -10 -10 -10h-28q-10 0 -10 10v624z" />
    <glyph glyph-name="afii10034" unicode="&#xd0;" horiz-adv-x="512" 
d="M200 317q99 0 156 43.5t57 124.5q0 80 -46.5 117t-127.5 37q-31 0 -61 -4.5t-44 -7.5v-310h66zM86 643q0 8 5.5 13.5t13.5 7.5q33 8 66 11.5t70 3.5q50 0 91 -11t69.5 -34t44 -58.5t15.5 -85.5q0 -44 -12 -76.5t-35 -58.5q-66 -75 -218 -75h-62v-270q0 -10 -10 -10h-27
q-11 0 -11 10v633z" />
    <glyph glyph-name="afii10034" unicode="&#x420;" horiz-adv-x="512" 
d="M200 317q99 0 156 43.5t57 124.5q0 80 -46.5 117t-127.5 37q-31 0 -61 -4.5t-44 -7.5v-310h66zM86 643q0 8 5.5 13.5t13.5 7.5q33 8 66 11.5t70 3.5q50 0 91 -11t69.5 -34t44 -58.5t15.5 -85.5q0 -44 -12 -76.5t-35 -58.5q-66 -75 -218 -75h-62v-270q0 -10 -10 -10h-27
q-11 0 -11 10v633z" />
    <glyph glyph-name="afii10035" unicode="&#xd1;" horiz-adv-x="580" 
d="M529 18q-31 -12 -72.5 -20t-95.5 -8q-61 0 -118.5 20t-102 62t-71.5 106.5t-27 154.5q0 75 23.5 139t67.5 111.5t107.5 74t143.5 26.5q54 0 88.5 -7.5t54.5 -15.5q5 -2 9 -4t4 -7q0 -1 -2 -7l-7 -18q-2 -7 -7 -7q-3 0 -12 3q-26 11 -57.5 17t-69.5 6q-68 0 -122.5 -21.5
t-92.5 -62t-58 -98t-20 -130.5q0 -69 19 -124.5t55.5 -94.5t89.5 -60.5t121 -21.5q38 0 71 6t67 19q6 2 8 2.5t4 0.5q5 0 7 -7l6 -16q2 -6 2 -7q0 -5 -4 -7t-9 -4z" />
    <glyph glyph-name="afii10035" unicode="&#x421;" horiz-adv-x="580" 
d="M529 18q-31 -12 -72.5 -20t-95.5 -8q-61 0 -118.5 20t-102 62t-71.5 106.5t-27 154.5q0 75 23.5 139t67.5 111.5t107.5 74t143.5 26.5q54 0 88.5 -7.5t54.5 -15.5q5 -2 9 -4t4 -7q0 -1 -2 -7l-7 -18q-2 -7 -7 -7q-3 0 -12 3q-26 11 -57.5 17t-69.5 6q-68 0 -122.5 -21.5
t-92.5 -62t-58 -98t-20 -130.5q0 -69 19 -124.5t55.5 -94.5t89.5 -60.5t121 -21.5q38 0 71 6t67 19q6 2 8 2.5t4 0.5q5 0 7 -7l6 -16q2 -6 2 -7q0 -5 -4 -7t-9 -4z" />
    <glyph glyph-name="afii10036" unicode="&#xd2;" horiz-adv-x="522" 
d="M287 634v-624q0 -10 -10 -10h-28q-10 0 -10 10v624h-210q-11 0 -11 10v20q0 10 11 10h472q5 0 7 -0.5t2 -5.5q0 -2 -2 -10l-5 -16q-3 -8 -9 -8h-207z" />
    <glyph glyph-name="afii10036" unicode="&#x422;" horiz-adv-x="522" 
d="M287 634v-624q0 -10 -10 -10h-28q-10 0 -10 10v624h-210q-11 0 -11 10v20q0 10 11 10h472q5 0 7 -0.5t2 -5.5q0 -2 -2 -10l-5 -16q-3 -8 -9 -8h-207z" />
    <glyph glyph-name="afii10037" unicode="&#xd3;" horiz-adv-x="490" 
d="M267 244h2l166 420q3 10 10 10h31q9 0 9 -6v-4q0 -2 -2 -5l-151 -364q-29 -69 -54 -125.5t-54 -96.5t-65.5 -61.5t-87.5 -21.5h-15q-9 0 -11 10l-4 15q-1 5 -1 8q0 7 8 7h27q30 0 55.5 15t46.5 38.5t38 52.5t29 57l-229 466q-2 3 -2 5v4q0 6 9 6h34q5 0 6.5 -2.5
t3.5 -7.5z" />
    <glyph glyph-name="afii10037" unicode="&#x423;" horiz-adv-x="490" 
d="M267 244h2l166 420q3 10 10 10h31q9 0 9 -6v-4q0 -2 -2 -5l-151 -364q-29 -69 -54 -125.5t-54 -96.5t-65.5 -61.5t-87.5 -21.5h-15q-9 0 -11 10l-4 15q-1 5 -1 8q0 7 8 7h27q30 0 55.5 15t46.5 38.5t38 52.5t29 57l-229 466q-2 3 -2 5v4q0 6 9 6h34q5 0 6.5 -2.5
t3.5 -7.5z" />
    <glyph glyph-name="afii10038" unicode="&#xd4;" horiz-adv-x="696" 
d="M324 603q-40 -2 -81.5 -16t-75.5 -43.5t-55.5 -76.5t-21.5 -114q0 -56 19 -99t51 -73.5t74.5 -48t89.5 -21.5v492zM372 111q46 3 88 19.5t74.5 47t52 74.5t19.5 101q0 66 -20 112.5t-52.5 76.5t-74.5 44.5t-87 16.5v-492zM324 75q-51 3 -101.5 20.5t-90.5 51.5t-64.5 85
t-24.5 121q0 77 25.5 130.5t66 87.5t90.5 50t99 18v64q0 10 10 10h28q10 0 10 -10v-64q52 -1 102.5 -18.5t90.5 -53t64 -88.5t24 -126q0 -70 -24 -121t-64 -85.5t-90.5 -52t-102.5 -19.5v-92q0 -10 -10 -10h-28q-10 0 -10 10v92z" />
    <glyph glyph-name="afii10038" unicode="&#x424;" horiz-adv-x="696" 
d="M324 603q-40 -2 -81.5 -16t-75.5 -43.5t-55.5 -76.5t-21.5 -114q0 -56 19 -99t51 -73.5t74.5 -48t89.5 -21.5v492zM372 111q46 3 88 19.5t74.5 47t52 74.5t19.5 101q0 66 -20 112.5t-52.5 76.5t-74.5 44.5t-87 16.5v-492zM324 75q-51 3 -101.5 20.5t-90.5 51.5t-64.5 85
t-24.5 121q0 77 25.5 130.5t66 87.5t90.5 50t99 18v64q0 10 10 10h28q10 0 10 -10v-64q52 -1 102.5 -18.5t90.5 -53t64 -88.5t24 -126q0 -70 -24 -121t-64 -85.5t-90.5 -52t-102.5 -19.5v-92q0 -10 -10 -10h-28q-10 0 -10 10v92z" />
    <glyph glyph-name="afii10039" unicode="&#xd5;" horiz-adv-x="556" 
d="M96 10q-2 -4 -4.5 -7t-7.5 -3h-33q-9 0 -9 7q0 1 0.5 3t2.5 6l204 325l-197 319q-3 4 -3 7q0 7 9 7h34q5 0 7 -2.5t5 -7.5l172 -286h2l178 286q2 4 4.5 7t7.5 3h34q9 0 9 -7q0 -1 -0.5 -3t-2.5 -6l-205 -312l208 -332q3 -5 3 -7q0 -7 -9 -7h-33q-7 0 -13 10l-185 296h-2z
" />
    <glyph glyph-name="afii10039" unicode="&#x425;" horiz-adv-x="556" 
d="M96 10q-2 -4 -4.5 -7t-7.5 -3h-33q-9 0 -9 7q0 1 0.5 3t2.5 6l204 325l-197 319q-3 4 -3 7q0 7 9 7h34q5 0 7 -2.5t5 -7.5l172 -286h2l178 286q2 4 4.5 7t7.5 3h34q9 0 9 -7q0 -1 -0.5 -3t-2.5 -6l-205 -312l208 -332q3 -5 3 -7q0 -7 -9 -7h-33q-7 0 -13 10l-185 296h-2z
" />
    <glyph glyph-name="afii10040" unicode="&#xd6;" horiz-adv-x="638" 
d="M490 40v624q0 10 11 10h27q10 0 10 -10v-624h45q10 0 10 -10v-180q0 -10 -10 -10h-21q-11 0 -11 10v150h-454q-11 0 -11 10v654q0 10 11 10h27q10 0 10 -10v-624h356z" />
    <glyph glyph-name="afii10040" unicode="&#x426;" horiz-adv-x="638" 
d="M490 40v624q0 10 11 10h27q10 0 10 -10v-624h45q10 0 10 -10v-180q0 -10 -10 -10h-21q-11 0 -11 10v150h-454q-11 0 -11 10v654q0 10 11 10h27q10 0 10 -10v-624h356z" />
    <glyph glyph-name="afii10041" unicode="&#xd7;" horiz-adv-x="559" 
d="M472 10q0 -10 -10 -10h-27q-11 0 -11 10v300q-38 -15 -87 -25.5t-95 -10.5q-26 0 -56.5 6t-56 26t-42.5 58t-17 103v197q0 10 11 10h27q10 0 10 -10v-197q0 -82 33 -117.5t115 -35.5q36 0 78.5 10.5t79.5 24.5v315q0 10 11 10h27q10 0 10 -10v-654v0z" />
    <glyph glyph-name="afii10041" unicode="&#x427;" horiz-adv-x="559" 
d="M472 10q0 -10 -10 -10h-27q-11 0 -11 10v300q-38 -15 -87 -25.5t-95 -10.5q-26 0 -56.5 6t-56 26t-42.5 58t-17 103v197q0 10 11 10h27q10 0 10 -10v-197q0 -82 33 -117.5t115 -35.5q36 0 78.5 10.5t79.5 24.5v315q0 10 11 10h27q10 0 10 -10v-654v0z" />
    <glyph glyph-name="afii10042" unicode="&#xd8;" horiz-adv-x="817" 
d="M86 664q0 10 11 10h27q10 0 10 -10v-624h250v624q0 10 11 10h27q10 0 10 -10v-624h251v624q0 10 11 10h27q10 0 10 -10v-654q0 -10 -10 -10h-624q-11 0 -11 10v654z" />
    <glyph glyph-name="afii10042" unicode="&#x428;" horiz-adv-x="817" 
d="M86 664q0 10 11 10h27q10 0 10 -10v-624h250v624q0 10 11 10h27q10 0 10 -10v-624h251v624q0 10 11 10h27q10 0 10 -10v-654q0 -10 -10 -10h-624q-11 0 -11 10v654z" />
    <glyph glyph-name="afii10043" unicode="&#xd9;" horiz-adv-x="831" 
d="M786 -150q0 -10 -10 -10h-21q-11 0 -11 10v150h-647q-11 0 -11 10v654q0 10 11 10h27q10 0 10 -10v-624h250v624q0 10 11 10h27q10 0 10 -10v-624h251v624q0 10 11 10h27q10 0 10 -10v-624h45q10 0 10 -10v-180v0z" />
    <glyph glyph-name="afii10043" unicode="&#x429;" horiz-adv-x="831" 
d="M786 -150q0 -10 -10 -10h-21q-11 0 -11 10v150h-647q-11 0 -11 10v654q0 10 11 10h27q10 0 10 -10v-624h250v624q0 10 11 10h27q10 0 10 -10v-624h251v624q0 10 11 10h27q10 0 10 -10v-624h45q10 0 10 -10v-180v0z" />
    <glyph glyph-name="afii10044" unicode="&#xda;" horiz-adv-x="630" 
d="M533 209q0 46 -18 78t-50.5 52.5t-76.5 29.5t-96 9h-48v-334q17 -4 44 -7t53 -3q41 0 76 11.5t61 33.5t40.5 54.5t14.5 75.5zM582 211q0 -57 -18 -97.5t-51 -67t-78.5 -39t-100.5 -12.5q-32 0 -65.5 3.5t-56.5 7.5q-5 1 -10.5 4.5t-5.5 10.5v613h-173q-9 0 -9 8v3t1 7
l2 12q2 10 10 10h207q10 0 10 -10v-248h53q60 0 112 -11t90.5 -35.5t60.5 -63.5t22 -95z" />
    <glyph glyph-name="afii10044" unicode="&#x42a;" horiz-adv-x="630" 
d="M533 209q0 46 -18 78t-50.5 52.5t-76.5 29.5t-96 9h-48v-334q17 -4 44 -7t53 -3q41 0 76 11.5t61 33.5t40.5 54.5t14.5 75.5zM582 211q0 -57 -18 -97.5t-51 -67t-78.5 -39t-100.5 -12.5q-32 0 -65.5 3.5t-56.5 7.5q-5 1 -10.5 4.5t-5.5 10.5v613h-173q-9 0 -9 8v3t1 7
l2 12q2 10 10 10h207q10 0 10 -10v-248h53q60 0 112 -11t90.5 -35.5t60.5 -63.5t22 -95z" />
    <glyph glyph-name="afii10045" unicode="&#xdb;" horiz-adv-x="691" 
d="M605 10q0 -10 -10 -10h-28q-10 0 -10 10v654q0 10 10 10h28q10 0 10 -10v-654v0zM424 209q0 46 -17.5 78t-49 52.5t-75 29.5t-95.5 9h-53v-334q17 -4 44 -7t53 -3q41 0 76 11.5t61 33.5t41 54.5t15 75.5zM473 211q0 -57 -18 -97.5t-51 -67t-79 -39t-101 -12.5
q-32 0 -65.5 3.5t-56.5 7.5q-5 1 -10.5 4.5t-5.5 10.5v643q0 10 11 10h28q9 0 9 -10v-248h58q60 0 111 -11t89 -35.5t59.5 -63.5t21.5 -95z" />
    <glyph glyph-name="afii10045" unicode="&#x42b;" horiz-adv-x="691" 
d="M605 10q0 -10 -10 -10h-28q-10 0 -10 10v654q0 10 10 10h28q10 0 10 -10v-654v0zM424 209q0 46 -17.5 78t-49 52.5t-75 29.5t-95.5 9h-53v-334q17 -4 44 -7t53 -3q41 0 76 11.5t61 33.5t41 54.5t15 75.5zM473 211q0 -57 -18 -97.5t-51 -67t-79 -39t-101 -12.5
q-32 0 -65.5 3.5t-56.5 7.5q-5 1 -10.5 4.5t-5.5 10.5v643q0 10 11 10h28q9 0 9 -10v-248h58q60 0 111 -11t89 -35.5t59.5 -63.5t21.5 -95z" />
    <glyph glyph-name="afii10046" unicode="&#xdc;" horiz-adv-x="520" 
d="M424 209q0 46 -17.5 78t-49 52.5t-75 29.5t-95.5 9h-53v-334q17 -4 44 -7t53 -3q41 0 76 11.5t61 33.5t41 54.5t15 75.5zM473 211q0 -57 -18 -97.5t-51 -67t-79 -39t-101 -12.5q-32 0 -65.5 3.5t-56.5 7.5q-5 1 -10.5 4.5t-5.5 10.5v643q0 10 11 10h27q10 0 10 -10v-248
h58q60 0 111 -11t89 -35.5t59.5 -63.5t21.5 -95z" />
    <glyph glyph-name="afii10046" unicode="&#x42c;" horiz-adv-x="520" 
d="M424 209q0 46 -17.5 78t-49 52.5t-75 29.5t-95.5 9h-53v-334q17 -4 44 -7t53 -3q41 0 76 11.5t61 33.5t41 54.5t15 75.5zM473 211q0 -57 -18 -97.5t-51 -67t-79 -39t-101 -12.5q-32 0 -65.5 3.5t-56.5 7.5q-5 1 -10.5 4.5t-5.5 10.5v643q0 10 11 10h27q10 0 10 -10v-248
h58q60 0 111 -11t89 -35.5t59.5 -63.5t21.5 -95z" />
    <glyph glyph-name="afii10047" unicode="&#xdd;" horiz-adv-x="566" 
d="M524 337q0 -81 -24.5 -145.5t-67 -109.5t-99 -68.5t-119.5 -23.5q-43 0 -83 7.5t-78 21.5q-5 2 -9 4t-4 7q0 1 2 7l6 18q2 7 7 7q2 0 4 -0.5t8 -2.5q31 -12 66.5 -20.5t69.5 -8.5q63 0 113 23t85 63t53.5 94.5t19.5 116.5h-322q-8 0 -10 10l-2 13q-1 5 -1 6v3q0 8 9 8
h325q-5 58 -23.5 109t-51 88t-78.5 58.5t-104 21.5q-37 0 -69.5 -8.5t-65.5 -21.5q-9 -3 -11 -3q-5 0 -7 7l-7 17q-2 6 -2 7q0 5 4 7t9 4q36 14 72.5 22.5t77.5 8.5q73 0 130.5 -26t96.5 -72.5t59.5 -110t20.5 -138.5z" />
    <glyph glyph-name="afii10047" unicode="&#x42d;" horiz-adv-x="566" 
d="M524 337q0 -81 -24.5 -145.5t-67 -109.5t-99 -68.5t-119.5 -23.5q-43 0 -83 7.5t-78 21.5q-5 2 -9 4t-4 7q0 1 2 7l6 18q2 7 7 7q2 0 4 -0.5t8 -2.5q31 -12 66.5 -20.5t69.5 -8.5q63 0 113 23t85 63t53.5 94.5t19.5 116.5h-322q-8 0 -10 10l-2 13q-1 5 -1 6v3q0 8 9 8
h325q-5 58 -23.5 109t-51 88t-78.5 58.5t-104 21.5q-37 0 -69.5 -8.5t-65.5 -21.5q-9 -3 -11 -3q-5 0 -7 7l-7 17q-2 6 -2 7q0 5 4 7t9 4q36 14 72.5 22.5t77.5 8.5q73 0 130.5 -26t96.5 -72.5t59.5 -110t20.5 -138.5z" />
    <glyph glyph-name="afii10048" unicode="&#xde;" horiz-adv-x="844" 
d="M751 339q0 53 -13.5 107.5t-41 98.5t-70.5 72t-102 28q-55 0 -97.5 -25t-71.5 -67.5t-44 -98.5t-15 -119q0 -53 13 -107.5t41 -98.5t70.5 -72t101.5 -28q55 0 98 25t72 67.5t44 98.5t15 119zM801 339q0 -90 -23 -156t-62 -109t-90 -64t-106 -21q-62 0 -112 24t-86 68.5
t-55.5 106.5t-20.5 139h-112v-317q0 -10 -10 -10h-28q-10 0 -10 10v654q0 10 10 10h28q10 0 10 -10v-297h113q4 82 28.5 142t62.5 99t87 58t102 19q62 0 112.5 -25t86.5 -70t55.5 -109t19.5 -142z" />
    <glyph glyph-name="afii10048" unicode="&#x42e;" horiz-adv-x="844" 
d="M751 339q0 53 -13.5 107.5t-41 98.5t-70.5 72t-102 28q-55 0 -97.5 -25t-71.5 -67.5t-44 -98.5t-15 -119q0 -53 13 -107.5t41 -98.5t70.5 -72t101.5 -28q55 0 98 25t72 67.5t44 98.5t15 119zM801 339q0 -90 -23 -156t-62 -109t-90 -64t-106 -21q-62 0 -112 24t-86 68.5
t-55.5 106.5t-20.5 139h-112v-317q0 -10 -10 -10h-28q-10 0 -10 10v654q0 10 10 10h28q10 0 10 -10v-297h113q4 82 28.5 142t62.5 99t87 58t102 19q62 0 112.5 -25t86.5 -70t55.5 -109t19.5 -142z" />
    <glyph glyph-name="afii10049" unicode="&#xdf;" horiz-adv-x="549" 
d="M464 10q0 -10 -11 -10h-27q-10 0 -10 10v299h-85q-32 0 -56 -5.5t-43.5 -19t-34.5 -36t-28 -57.5l-68 -181q-2 -8 -7.5 -9t-12.5 -1h-22q-9 0 -9 5q0 2 1 6t2 6l74 192q10 27 22 46.5t25.5 32.5t30 22t36.5 15v2q-32 8 -59 22.5t-47 36.5t-31.5 51t-11.5 66
q0 46 16.5 79.5t46.5 55t71 31.5t89 10q30 0 65.5 -3.5t64.5 -8.5q5 -1 12 -5.5t7 -15.5v-636v0zM416 629q-13 3 -39 7t-61 4q-80 0 -128 -34.5t-48 -110.5q0 -33 15 -60.5t40.5 -46.5t60 -29.5t73.5 -10.5h87v281z" />
    <glyph glyph-name="afii10049" unicode="&#x42f;" horiz-adv-x="549" 
d="M464 10q0 -10 -11 -10h-27q-10 0 -10 10v299h-85q-32 0 -56 -5.5t-43.5 -19t-34.5 -36t-28 -57.5l-68 -181q-2 -8 -7.5 -9t-12.5 -1h-22q-9 0 -9 5q0 2 1 6t2 6l74 192q10 27 22 46.5t25.5 32.5t30 22t36.5 15v2q-32 8 -59 22.5t-47 36.5t-31.5 51t-11.5 66
q0 46 16.5 79.5t46.5 55t71 31.5t89 10q30 0 65.5 -3.5t64.5 -8.5q5 -1 12 -5.5t7 -15.5v-636v0zM416 629q-13 3 -39 7t-61 4q-80 0 -128 -34.5t-48 -110.5q0 -33 15 -60.5t40.5 -46.5t60 -29.5t73.5 -10.5h87v281z" />
    <glyph glyph-name="dagger" unicode="&#x2020;" horiz-adv-x="500" 
d="M437 426q0 -10 -10 -10h-14q-4 0 -9 1l-145 7l15 -433v-13q0 -5 0.5 -10.5t0.5 -7.5q0 -10 -10 -10h-45q-10 0 -10 10v18q0 6 1 13l15 433l-145 -7q-5 -1 -9 -1h-14q-10 0 -10 10v29q0 10 10 10q2 0 6 -0.5t8 -0.5h9l145 -7l-7 184q-1 5 -1 9v14q0 10 10 10h29
q10 0 10 -10q0 -2 -0.5 -6t-0.5 -8v-9l-7 -184l145 7h9q4 0 8 0.5t6 0.5q10 0 10 -10v-29v0z" />
    <glyph glyph-name="degree" unicode="&#xb0;" horiz-adv-x="318" 
d="M163 685q31 0 55 -11t41 -29t26 -41.5t9 -48.5q0 -30 -11 -54.5t-30 -42t-43 -27t-50 -9.5q-29 0 -53.5 10.5t-41.5 28t-26.5 41t-9.5 49.5q0 28 10.5 52.5t28.5 42.5t42 28.5t52 10.5h1zM160 638q-19 0 -33.5 -7.5t-24 -20t-14.5 -28t-5 -31.5q0 -35 22 -58.5t56 -23.5
q35 0 57 24t22 61q0 14 -4.5 29t-14 27t-24.5 20t-36 8h-1z" />
    <glyph glyph-name="section" unicode="&#xa7;" horiz-adv-x="519" 
d="M109 17q16 -12 44.5 -22.5t68.5 -10.5q25 0 48.5 6.5t40.5 19.5t27.5 31.5t10.5 42.5q0 21 -5 37.5t-19.5 30.5t-39.5 27t-64 27q-36 13 -64.5 27t-48 31t-30 38.5t-10.5 48.5q0 26 15.5 56.5t55.5 61.5q-14 11 -23 30.5t-9 42.5q0 32 13 58t36 44t53 28t65 10
q37 0 66.5 -8.5t49.5 -20.5q5 -3 5 -9q0 -3 -1 -5l-11 -18q-3 -5 -8 -5q-2 0 -6 2q-17 11 -43.5 19.5t-58.5 8.5q-22 0 -43 -6.5t-37 -18t-26 -28t-10 -37.5q0 -24 10 -41t27.5 -29.5t42 -22t53.5 -19.5t55 -22.5t45 -29t30 -38t11 -51.5q0 -41 -17 -71t-46 -55
q11 -11 21.5 -32.5t10.5 -50.5q0 -36 -14.5 -63t-39 -46t-56.5 -28.5t-66 -9.5q-40 0 -72.5 9t-54.5 23q-5 3 -5 8q0 4 1 6l10 21q2 5 7 5q3 0 5 -2zM112 356q0 -14 4.5 -27.5t17 -26.5t34.5 -25.5t56 -25.5q42 -15 67.5 -27t43.5 -25q21 17 33 41t12 51q0 34 -20.5 60.5
t-76.5 46.5q-29 11 -60.5 22.5t-57.5 28.5q-29 -22 -41 -44.5t-12 -47.5v-1z" />
    <glyph glyph-name="bullet" unicode="&#x2022;" horiz-adv-x="315" 
d="M265 262q0 -22 -8.5 -41.5t-23.5 -34t-34.5 -23t-41.5 -8.5t-41.5 8.5t-34 23t-23 34t-8.5 41.5t8.5 41.5t23 34.5t34 23.5t41.5 8.5t41.5 -8.5t34.5 -23.5t23.5 -34.5t8.5 -41.5z" />
    <glyph glyph-name="paragraph" unicode="&#xb6;" horiz-adv-x="512" 
d="M398 -57q0 -10 -10 -10h-21q-10 0 -10 10v692h-71v-692q0 -10 -10 -10h-21q-10 0 -10 10v321h-8q-35 0 -71 12t-65 35.5t-48 59.5t-19 84q0 39 12 78t42 70.5t81 51t128 19.5q37 0 60.5 -2t40.5 -5v-724v0z" />
    <glyph glyph-name="registered" unicode="&#xae;" horiz-adv-x="423" 
d="M378 516q0 -34 -13 -64.5t-35.5 -53t-53 -35.5t-64.5 -13q-35 0 -65 13t-53 35.5t-36 53t-13 64.5t13 64.5t36 53.5t53 36t65 13q34 0 64.5 -13t53 -36t35.5 -53.5t13 -64.5zM252 558q0 18 -13.5 26.5t-36.5 8.5q-12 0 -27 -4v-64h29q23 0 35.5 9.5t12.5 23.5zM355 516
q0 30 -11 56t-30.5 45.5t-45.5 31t-56 11.5t-56.5 -11.5t-46 -31t-30.5 -45.5t-11 -56t11 -56t30.5 -45.5t46 -30.5t56.5 -11t56 11t45.5 30.5t30.5 45.5t11 56zM290 437v-1l1 -2q0 -5 -7 -5h-12q-5 0 -8 7l-16 36q-8 17 -17.5 26t-29.5 9h-26v-73q0 -5 -5 -5h-17q-4 0 -4 5
v161q0 5 3 7t6 3q9 2 22.5 4t24.5 2q30 0 52 -11t22 -38q0 -15 -12 -28.5t-29 -18.5q11 -4 18.5 -13t12.5 -20z" />
    <glyph glyph-name="copyright" unicode="&#xa9;" horiz-adv-x="677" 
d="M450 501q10 -4 10 -9q0 -2 -1 -6l-6 -16q-1 -4 -5 -4q-1 0 -5 2q-11 6 -30.5 12.5t-57.5 6.5q-39 0 -67 -12t-46 -32.5t-27 -47.5t-9 -58t9 -58.5t28 -48t47.5 -32.5t66.5 -12q28 0 53 6t43 16q4 2 5 2q4 0 5 -4l4 -14q1 -4 1 -6t-3 -4.5t-7 -4.5q-27 -14 -55 -19t-56 -5
q-43 0 -77 14t-57 38.5t-35.5 57.5t-12.5 71q0 42 15.5 76.5t41.5 59t60 37.5t72 13q36 0 59 -6t37 -13zM654 338q0 -63 -24.5 -119t-66.5 -98t-98 -66.5t-119 -24.5q-64 0 -120.5 24.5t-98.5 66.5t-66.5 98t-24.5 119q0 64 24.5 120.5t66.5 98.5t98.5 66.5t120.5 24.5
q63 0 119 -24.5t98 -66.5t66.5 -98.5t24.5 -120.5zM620 338q0 57 -21.5 107.5t-59 88t-87 59t-106.5 21.5t-107.5 -21.5t-88 -59t-59 -88t-21.5 -107.5t21.5 -106.5t59 -87t88 -59t107.5 -21.5t106.5 21.5t87 59t59 87t21.5 106.5z" />
    <glyph glyph-name="trademark" unicode="&#x2122;" horiz-adv-x="619" 
d="M535 587q-1 12 -1.5 26.5t-1.5 31.5h-2q-5 -12 -10.5 -30.5t-11.5 -34.5l-60 -165q-1 -3 -3.5 -6t-7.5 -3h-25q-7 0 -11 9l-61 170q-5 13 -10 30t-10 30h-2q1 -4 1 -14q0 -9 -1 -19.5t-2 -24.5l-12 -175q0 -3 -2.5 -6.5t-7.5 -3.5h-17q-9 0 -9 10l20 250q2 12 11 12h29
q13 0 18 -12l60 -162q6 -15 11 -29t8 -28h2q5 14 9.5 29t8.5 26l59 163q4 13 17 13h27q13 0 15 -10l22 -252q0 -10 -9 -10h-20q-9 0 -9 10zM244 674q8 0 8 -5v-3q0 -2 -0.5 -3.5t-0.5 -3.5l-1 -8q-2 -8 -9 -8h-80v-231q0 -3 -2.5 -6.5t-7.5 -3.5h-17q-5 0 -7 3.5t-2 6.5v231
h-84q-5 0 -6.5 3t-1.5 5v15q0 8 8 8h203z" />
    <glyph glyph-name="guillemotleft" unicode="&#xab;" horiz-adv-x="431" 
d="M361 57q0 -5 -8 -5h-26q-9 0 -17 10l-129 162q-3 3 -3 8t3 8l129 162q8 10 17 10h26q8 0 8 -5q0 -3 -4 -7l-132 -168l132 -168q4 -4 4 -7zM216 57q0 -5 -8 -5h-26q-9 0 -17 10l-129 162q-3 3 -3 8t3 8l129 162q8 10 17 10h26q8 0 8 -5q0 -3 -4 -7l-132 -168l132 -168
q4 -4 4 -7z" />
    <glyph glyph-name="guillemotright" unicode="&#xbb;" horiz-adv-x="431" 
d="M70 57q0 3 4 7l132 168l-132 168q-4 4 -4 7q0 5 8 5h26q9 0 17 -10l129 -162q3 -3 3 -8t-3 -8l-129 -162q-8 -10 -17 -10h-26q-8 0 -8 5zM215 57q0 3 4 7l132 168l-132 168q-4 4 -4 7q0 5 8 5h26q9 0 17 -10l129 -162q3 -3 3 -8t-3 -8l-129 -162q-8 -10 -17 -10h-26
q-8 0 -8 5z" />
    <glyph glyph-name="ellipsis" unicode="&#x2026;" horiz-adv-x="880" 
d="M200 34q0 -20 -10.5 -32.5t-29.5 -12.5t-29.5 12.5t-10.5 32.5t10.5 32.5t29.5 12.5t29.5 -12.5t10.5 -32.5zM480 34q0 -20 -10.5 -32.5t-29.5 -12.5t-29.5 12.5t-10.5 32.5t10.5 32.5t29.5 12.5t29.5 -12.5t10.5 -32.5zM760 34q0 -20 -10.5 -32.5t-29.5 -12.5
t-29.5 12.5t-10.5 32.5t10.5 32.5t29.5 12.5t29.5 -12.5t10.5 -32.5z" />
    <glyph glyph-name="endash" unicode="&#x2013;" horiz-adv-x="500" 
d="M40 235q-10 0 -10 8v2q0 3 1 6l2 13q1 10 10 10h417q10 0 10 -8v-2q0 -1 -0.5 -2.5t-0.5 -3.5l-2 -13q-1 -10 -10 -10h-417z" />
    <glyph glyph-name="emdash" unicode="&#x2014;" horiz-adv-x="1000" 
d="M40 235q-10 0 -10 8v2q0 3 1 6l2 13q1 10 10 10h917q10 0 10 -8v-2q0 -1 -0.5 -2.5t-0.5 -3.5l-2 -13q-1 -10 -10 -10h-917z" />
    <glyph glyph-name="quotedblleft" unicode="&#x201c;" horiz-adv-x="368" 
d="M292 699q4 11 13 12l11 2q5 1 8 1h5q4 0 4 -5l-45 -183q-2 -8 -5.5 -16t-14.5 -10q-19 -4 -29 -5t-12 -1q-7 0 -7 7q0 5 2 10zM142 699q4 11 13 12l11 2q5 1 8 1h5q4 0 4 -5l-45 -183q-2 -8 -5.5 -16t-14.5 -10q-19 -4 -29 -5t-12 -1q-7 0 -7 7q0 5 2 10z" />
    <glyph glyph-name="quotedblright" unicode="&#x201d;" horiz-adv-x="368" 
d="M76 509q-4 -11 -13 -12l-11 -2q-5 -1 -8 -1h-5q-4 0 -4 5l45 183q2 8 5.5 16t14.5 10q19 4 29 5t12 1q7 0 7 -7q0 -5 -2 -10zM226 509q-4 -11 -13 -12l-11 -2q-5 -1 -8 -1h-5q-4 0 -4 5l45 183q2 8 5.5 16t14.5 10q19 4 29 5t12 1q7 0 7 -7q0 -5 -2 -10z" />
    <glyph glyph-name="quoteleft" unicode="&#x2018;" horiz-adv-x="218" 
d="M142 699q4 11 13 12l11 2q5 1 8 1h5q4 0 4 -5l-45 -183q-2 -8 -5.5 -16t-14.5 -10q-19 -4 -29 -5t-12 -1q-7 0 -7 7q0 5 2 10z" />
    <glyph glyph-name="quoteright" unicode="&#x2019;" horiz-adv-x="218" 
d="M76 509q-4 -11 -13 -12l-11 -2q-5 -1 -8 -1h-5q-4 0 -4 5l45 183q2 8 5.5 16t14.5 10q19 4 29 5t12 1q7 0 7 -7q0 -5 -2 -10z" />
    <glyph glyph-name="afii61352" unicode="&#xb9;" horiz-adv-x="960" 
d="M129 602v-592q0 -10 -10 -10h-25q-10 0 -10 10v654q0 10 10 10h36q7 0 13 -11l307 -585v586q0 10 10 10h25q10 0 10 -10v-654q0 -10 -10 -10h-32q-8 0 -13 11zM850 484q0 -48 -13 -81.5t-34 -55.5t-47 -32t-52 -10q-31 0 -58 11.5t-46.5 34t-30.5 55t-11 74.5
q0 44 12.5 78t32.5 56.5t46.5 34t55.5 11.5h1q68 0 106 -47t38 -129zM806 483q0 24 -5.5 49t-17.5 46t-31.5 34t-47.5 13h-1q-26 0 -45.5 -12.5t-32 -33t-18.5 -46t-6 -52.5q0 -31 8.5 -57t22.5 -44.5t32.5 -29t39.5 -10.5q47 0 74.5 40t27.5 103zM826 230q-1 -10 -10 -10
h-223q-9 0 -9 10l3 19q1 10 9 10h223q11 0 11 -10z" />
    <glyph glyph-name="afii61352" unicode="&#x2116;" horiz-adv-x="960" 
d="M129 602v-592q0 -10 -10 -10h-25q-10 0 -10 10v654q0 10 10 10h36q7 0 13 -11l307 -585v586q0 10 10 10h25q10 0 10 -10v-654q0 -10 -10 -10h-32q-8 0 -13 11zM850 484q0 -48 -13 -81.5t-34 -55.5t-47 -32t-52 -10q-31 0 -58 11.5t-46.5 34t-30.5 55t-11 74.5
q0 44 12.5 78t32.5 56.5t46.5 34t55.5 11.5h1q68 0 106 -47t38 -129zM806 483q0 24 -5.5 49t-17.5 46t-31.5 34t-47.5 13h-1q-26 0 -45.5 -12.5t-32 -33t-18.5 -46t-6 -52.5q0 -31 8.5 -57t22.5 -44.5t32.5 -29t39.5 -10.5q47 0 74.5 40t27.5 103zM826 230q-1 -10 -10 -10
h-223q-9 0 -9 10l3 19q1 10 9 10h223q11 0 11 -10z" />
    <glyph glyph-name="afii10023" unicode="&#xa8;" horiz-adv-x="476" 
d="M165 726q-17 0 -27 11.5t-10 28.5q0 16 10.5 28t26.5 12q17 0 27 -11.5t10 -28.5t-9.5 -28.5t-27.5 -11.5zM337 726q-17 0 -27 11.5t-10 28.5q0 16 10.5 28t26.5 12q17 0 27 -11.5t10 -28.5t-9.5 -28.5t-27.5 -11.5zM435 10q0 -10 -10 -10h-328q-11 0 -11 10v654
q0 10 11 10h316q5 0 7.5 -0.5t2.5 -5.5v-5q0 -3 -2 -9l-2 -10q-2 -10 -10 -10h-275v-259h252q5 0 7.5 -0.5t2.5 -5.5v-5q0 -3 -2 -9l-2 -10q-2 -10 -10 -10h-248v-295h291q10 0 10 -10v-20v0z" />
    <glyph glyph-name="afii10023" unicode="&#x401;" horiz-adv-x="476" 
d="M165 726q-17 0 -27 11.5t-10 28.5q0 16 10.5 28t26.5 12q17 0 27 -11.5t10 -28.5t-9.5 -28.5t-27.5 -11.5zM337 726q-17 0 -27 11.5t-10 28.5q0 16 10.5 28t26.5 12q17 0 27 -11.5t10 -28.5t-9.5 -28.5t-27.5 -11.5zM435 10q0 -10 -10 -10h-328q-11 0 -11 10v654
q0 10 11 10h316q5 0 7.5 -0.5t2.5 -5.5v-5q0 -3 -2 -9l-2 -10q-2 -10 -10 -10h-275v-259h252q5 0 7.5 -0.5t2.5 -5.5v-5q0 -3 -2 -9l-2 -10q-2 -10 -10 -10h-248v-295h291q10 0 10 -10v-20v0z" />
    <glyph glyph-name="afii10071" unicode="&#xb8;" horiz-adv-x="495" 
d="M183 562q-17 0 -27.5 12t-10.5 27t11 27t27 12t26.5 -11.5t10.5 -27.5q0 -15 -10 -27t-27 -12zM352 562q-17 0 -27.5 12t-10.5 27t11 27t27 12t26.5 -11.5t10.5 -27.5q0 -15 -10 -27t-27 -12zM399 283q0 25 -6 54.5t-22 54.5t-44 42t-71 17q-40 0 -68.5 -16t-48 -40.5
t-30 -54t-13.5 -57.5h303v0zM409 15q-18 -8 -52.5 -16.5t-86.5 -8.5t-93.5 18t-70.5 50t-44.5 76t-15.5 97q0 60 16.5 108t45 82t68 52t86.5 18q59 0 95.5 -24t57 -58.5t27.5 -71.5t7 -63q0 -29 -17 -29h-339q0 -57 14.5 -98t39.5 -66.5t58.5 -37.5t70.5 -12q45 0 71.5 6
t47.5 15q8 4 12 4q5 0 7 -7l4 -13q1 -2 2 -6t1 -5q0 -4 -3.5 -6t-8.5 -4z" />
    <glyph glyph-name="afii10071" unicode="&#x451;" horiz-adv-x="495" 
d="M183 562q-17 0 -27.5 12t-10.5 27t11 27t27 12t26.5 -11.5t10.5 -27.5q0 -15 -10 -27t-27 -12zM352 562q-17 0 -27.5 12t-10.5 27t11 27t27 12t26.5 -11.5t10.5 -27.5q0 -15 -10 -27t-27 -12zM399 283q0 25 -6 54.5t-22 54.5t-44 42t-71 17q-40 0 -68.5 -16t-48 -40.5
t-30 -54t-13.5 -57.5h303v0zM409 15q-18 -8 -52.5 -16.5t-86.5 -8.5t-93.5 18t-70.5 50t-44.5 76t-15.5 97q0 60 16.5 108t45 82t68 52t86.5 18q59 0 95.5 -24t57 -58.5t27.5 -71.5t7 -63q0 -29 -17 -29h-339q0 -57 14.5 -98t39.5 -66.5t58.5 -37.5t70.5 -12q45 0 71.5 6
t47.5 15q8 4 12 4q5 0 7 -7l4 -13q1 -2 2 -6t1 -5q0 -4 -3.5 -6t-8.5 -4z" />
    <glyph glyph-name="afii10097" unicode="&#xff;" horiz-adv-x="469" 
d="M341 441q-17 4 -34 5.5t-42 1.5q-24 0 -50.5 -4t-48.5 -14.5t-36.5 -29.5t-14.5 -49q0 -28 15 -46.5t37 -30t47.5 -16t46.5 -4.5h80v187zM98 140q16 37 41.5 61t55.5 30v2q-26 3 -49.5 12t-41.5 24t-28.5 36t-10.5 48q0 40 18 65.5t46.5 40.5t63.5 20.5t70 5.5
q26 0 48 -2t47 -7q12 -2 21.5 -8.5t9.5 -27.5v-430q0 -10 -10 -10h-28q-10 0 -10 10v205h-76q-48 0 -76.5 -23t-48.5 -70l-47 -112q-2 -8 -7.5 -9t-12.5 -1h-22q-9 0 -9 5q0 2 1 6t2 6z" />
    <glyph glyph-name="afii10097" unicode="&#x44f;" horiz-adv-x="469" 
d="M341 441q-17 4 -34 5.5t-42 1.5q-24 0 -50.5 -4t-48.5 -14.5t-36.5 -29.5t-14.5 -49q0 -28 15 -46.5t37 -30t47.5 -16t46.5 -4.5h80v187zM98 140q16 37 41.5 61t55.5 30v2q-26 3 -49.5 12t-41.5 24t-28.5 36t-10.5 48q0 40 18 65.5t46.5 40.5t63.5 20.5t70 5.5
q26 0 48 -2t47 -7q12 -2 21.5 -8.5t9.5 -27.5v-430q0 -10 -10 -10h-28q-10 0 -10 10v205h-76q-48 0 -76.5 -23t-48.5 -70l-47 -112q-2 -8 -7.5 -9t-12.5 -1h-22q-9 0 -9 5q0 2 1 6t2 6z" />
    <glyph glyph-name="afii10065" unicode="&#xe0;" horiz-adv-x="456" 
d="M339 257q-39 0 -82 -4t-79 -17t-59 -38.5t-23 -68.5q0 -26 8 -45t21.5 -31t30.5 -18t36 -6q35 0 62.5 10.5t46 28t28.5 40t10 46.5v103zM91 457q34 17 67.5 25.5t62.5 8.5q52 0 84.5 -14.5t50.5 -38t24.5 -54t6.5 -62.5v-218l8 -87q1 -6 1 -10v-4q0 -3 -9 -5l-14 -2
q-5 -1 -10 -1h-5q-8 0 -8 9l-7 65h-2q-9 -14 -23.5 -28t-34 -25.5t-43.5 -19t-53 -7.5q-36 0 -63 11.5t-44 30.5t-25.5 42.5t-8.5 47.5q0 42 15.5 74t50 53.5t90.5 33t137 11.5v27q0 21 -3 44.5t-15.5 42.5t-37 31.5t-67.5 12.5q-27 0 -55 -7t-52 -20q-5 -2 -8 -4t-5 -2
q-3 0 -6 7l-6 14q-2 6 -2 8q0 5 9 10z" />
    <glyph glyph-name="afii10065" unicode="&#x430;" horiz-adv-x="456" 
d="M339 257q-39 0 -82 -4t-79 -17t-59 -38.5t-23 -68.5q0 -26 8 -45t21.5 -31t30.5 -18t36 -6q35 0 62.5 10.5t46 28t28.5 40t10 46.5v103zM91 457q34 17 67.5 25.5t62.5 8.5q52 0 84.5 -14.5t50.5 -38t24.5 -54t6.5 -62.5v-218l8 -87q1 -6 1 -10v-4q0 -3 -9 -5l-14 -2
q-5 -1 -10 -1h-5q-8 0 -8 9l-7 65h-2q-9 -14 -23.5 -28t-34 -25.5t-43.5 -19t-53 -7.5q-36 0 -63 11.5t-44 30.5t-25.5 42.5t-8.5 47.5q0 42 15.5 74t50 53.5t90.5 33t137 11.5v27q0 21 -3 44.5t-15.5 42.5t-37 31.5t-67.5 12.5q-27 0 -55 -7t-52 -20q-5 -2 -8 -4t-5 -2
q-3 0 -6 7l-6 14q-2 6 -2 8q0 5 9 10z" />
    <glyph glyph-name="afii10066" unicode="&#xe1;" horiz-adv-x="520" 
d="M426 242q0 32 -8 67t-27 64t-50 48t-77 19q-39 0 -69 -16.5t-50.5 -43.5t-30.5 -60.5t-10 -67.5q0 -41 10 -81.5t30 -72t50.5 -51t71.5 -19.5q43 0 73 19t49.5 50t28.5 69t9 76zM474 244q0 -118 -53 -186.5t-158 -68.5q-63 0 -104.5 27.5t-65.5 72.5t-33.5 103.5
t-9.5 120.5q0 58 9.5 113t35 102.5t70 85t114.5 60.5l150 49q6 2 10 2q6 0 8 -6l7 -21q1 -2 1 -5q0 -6 -13 -10l-156 -50q-53 -17 -89.5 -46t-59 -65t-33 -77t-13.5 -84h2q12 30 31.5 52.5t43.5 37.5t50.5 22t51.5 7q42 0 79 -14.5t64.5 -44t44 -73.5t16.5 -104z" />
    <glyph glyph-name="afii10066" unicode="&#x431;" horiz-adv-x="520" 
d="M426 242q0 32 -8 67t-27 64t-50 48t-77 19q-39 0 -69 -16.5t-50.5 -43.5t-30.5 -60.5t-10 -67.5q0 -41 10 -81.5t30 -72t50.5 -51t71.5 -19.5q43 0 73 19t49.5 50t28.5 69t9 76zM474 244q0 -118 -53 -186.5t-158 -68.5q-63 0 -104.5 27.5t-65.5 72.5t-33.5 103.5
t-9.5 120.5q0 58 9.5 113t35 102.5t70 85t114.5 60.5l150 49q6 2 10 2q6 0 8 -6l7 -21q1 -2 1 -5q0 -6 -13 -10l-156 -50q-53 -17 -89.5 -46t-59 -65t-33 -77t-13.5 -84h2q12 30 31.5 52.5t43.5 37.5t50.5 22t51.5 7q42 0 79 -14.5t64.5 -44t44 -73.5t16.5 -104z" />
    <glyph glyph-name="afii10067" unicode="&#xe2;" horiz-adv-x="479" 
d="M358 360q0 45 -37.5 65t-108.5 20q-23 0 -45 -2t-41 -5v-168h86q24 0 50 4.5t47 15t35 27.5t14 43zM380 132q0 28 -15.5 47.5t-40.5 30.5t-55.5 16t-60.5 5h-82v-187q43 -9 87 -9q24 0 53 4.5t54.5 15.5t42.5 29.5t17 47.5zM429 132q0 -45 -21 -72t-53 -41.5t-70.5 -19
t-72.5 -4.5q-62 0 -113 12q-5 2 -11 5.5t-6 14.5v426q0 11 6 14.5t11 5.5q52 12 116 12q30 0 63.5 -4t62 -17t47.5 -36t19 -62q0 -44 -29.5 -73.5t-72.5 -37.5v-2q52 -8 88 -37t36 -84z" />
    <glyph glyph-name="afii10067" unicode="&#x432;" horiz-adv-x="479" 
d="M358 360q0 45 -37.5 65t-108.5 20q-23 0 -45 -2t-41 -5v-168h86q24 0 50 4.5t47 15t35 27.5t14 43zM380 132q0 28 -15.5 47.5t-40.5 30.5t-55.5 16t-60.5 5h-82v-187q43 -9 87 -9q24 0 53 4.5t54.5 15.5t42.5 29.5t17 47.5zM429 132q0 -45 -21 -72t-53 -41.5t-70.5 -19
t-72.5 -4.5q-62 0 -113 12q-5 2 -11 5.5t-6 14.5v426q0 11 6 14.5t11 5.5q52 12 116 12q30 0 63.5 -4t62 -17t47.5 -36t19 -62q0 -44 -29.5 -73.5t-72.5 -37.5v-2q52 -8 88 -37t36 -84z" />
    <glyph glyph-name="afii10068" unicode="&#xe3;" horiz-adv-x="372" 
d="M82 470q0 10 11 10h250q4 0 6.5 -0.5t2.5 -5.5q0 -3 -0.5 -5.5t-0.5 -4.5l-2 -14q-2 -10 -10 -10h-209v-430q0 -10 -10 -10h-28q-10 0 -10 10v460z" />
    <glyph glyph-name="afii10068" unicode="&#x433;" horiz-adv-x="372" 
d="M82 470q0 10 11 10h250q4 0 6.5 -0.5t2.5 -5.5q0 -3 -0.5 -5.5t-0.5 -4.5l-2 -14q-2 -10 -10 -10h-209v-430q0 -10 -10 -10h-28q-10 0 -10 10v460z" />
    <glyph glyph-name="afii10069" unicode="&#xe4;" horiz-adv-x="508" 
d="M365 440h-177l-5 -94q-5 -87 -24 -161.5t-63 -144.5h269v400zM473 -140q0 -10 -10 -10h-21q-11 0 -11 10v140h-379v-140q0 -10 -11 -10h-21q-10 0 -10 10v170q0 10 10 10h26q25 36 42 72.5t28 75.5t17 80t8 85l6 117q1 10 10 10h246q10 0 10 -10v-430h50q10 0 10 -10
v-170v0z" />
    <glyph glyph-name="afii10069" unicode="&#x434;" horiz-adv-x="508" 
d="M365 440h-177l-5 -94q-5 -87 -24 -161.5t-63 -144.5h269v400zM473 -140q0 -10 -10 -10h-21q-11 0 -11 10v140h-379v-140q0 -10 -11 -10h-21q-10 0 -10 10v170q0 10 10 10h26q25 36 42 72.5t28 75.5t17 80t8 85l6 117q1 10 10 10h246q10 0 10 -10v-430h50q10 0 10 -10
v-170v0z" />
    <glyph glyph-name="afii10070" unicode="&#xe5;" horiz-adv-x="489" 
d="M399 283q0 25 -6 54.5t-22 54.5t-44 42t-71 17q-40 0 -68.5 -16t-48 -40.5t-30 -54t-13.5 -57.5h303zM409 15q-18 -8 -52.5 -16.5t-86.5 -8.5t-93.5 18t-70.5 50t-44.5 76t-15.5 97q0 60 16.5 108t45 82t68 52t86.5 18q59 0 95.5 -24t57 -58.5t27.5 -71.5t7 -63
q0 -29 -17 -29h-339q0 -57 14.5 -98t39.5 -66.5t58.5 -37.5t70.5 -12q45 0 71.5 6t47.5 15q8 4 12 4q5 0 7 -7l4 -13q1 -2 2 -6t1 -5q0 -4 -3.5 -6t-8.5 -4z" />
    <glyph glyph-name="afii10070" unicode="&#x435;" horiz-adv-x="489" 
d="M399 283q0 25 -6 54.5t-22 54.5t-44 42t-71 17q-40 0 -68.5 -16t-48 -40.5t-30 -54t-13.5 -57.5h303zM409 15q-18 -8 -52.5 -16.5t-86.5 -8.5t-93.5 18t-70.5 50t-44.5 76t-15.5 97q0 60 16.5 108t45 82t68 52t86.5 18q59 0 95.5 -24t57 -58.5t27.5 -71.5t7 -63
q0 -29 -17 -29h-339q0 -57 14.5 -98t39.5 -66.5t58.5 -37.5t70.5 -12q45 0 71.5 6t47.5 15q8 4 12 4q5 0 7 -7l4 -13q1 -2 2 -6t1 -5q0 -4 -3.5 -6t-8.5 -4z" />
    <glyph glyph-name="afii10072" unicode="&#xe6;" horiz-adv-x="624" 
d="M298 0q-10 0 -10 10v224h-1l-205 -224q-5 -5 -9 -7.5t-11 -2.5h-31q-10 0 -10 5q0 4 4 8l224 237l-214 217q-4 4 -4 8q0 5 10 5h27q7 0 10.5 -2.5t9.5 -7.5l199 -204h1v204q0 10 10 10h28q10 0 10 -10v-204h1l199 204q6 5 9.5 7.5t10.5 2.5h27q10 0 10 -5q0 -4 -4 -8
l-214 -217l224 -237q4 -4 4 -8q0 -5 -10 -5h-31q-7 0 -11 2.5t-9 7.5l-205 224h-1v-224q0 -10 -10 -10h-28z" />
    <glyph glyph-name="afii10072" unicode="&#x436;" horiz-adv-x="624" 
d="M298 0q-10 0 -10 10v224h-1l-205 -224q-5 -5 -9 -7.5t-11 -2.5h-31q-10 0 -10 5q0 4 4 8l224 237l-214 217q-4 4 -4 8q0 5 10 5h27q7 0 10.5 -2.5t9.5 -7.5l199 -204h1v204q0 10 10 10h28q10 0 10 -10v-204h1l199 204q6 5 9.5 7.5t10.5 2.5h27q10 0 10 -5q0 -4 -4 -8
l-214 -217l224 -237q4 -4 4 -8q0 -5 -10 -5h-31q-7 0 -11 2.5t-9 7.5l-205 224h-1v-224q0 -10 -10 -10h-28z" />
    <glyph glyph-name="afii10073" unicode="&#xe7;" horiz-adv-x="400" 
d="M357 129q0 -36 -15 -62t-40.5 -43.5t-59.5 -26t-73 -8.5q-32 0 -63.5 7t-57.5 19q-4 2 -7 4t-3 6v2t2 6l5 17q2 7 7 7t13 -4q25 -11 51.5 -18t53.5 -7q59 0 96.5 28.5t37.5 73.5q0 31 -12.5 50.5t-32 31t-43 16t-44.5 4.5h-48q-8 0 -10 10l-2 12q-1 5 -1 6v3q0 8 9 8h47
q23 0 44 7.5t37.5 20.5t26 30.5t9.5 38.5q0 39 -29.5 61.5t-71.5 22.5q-24 0 -50.5 -7t-49.5 -20q-8 -4 -11 -4q-4 0 -8 8l-4 8q-2 2 -2.5 5.5t-0.5 4.5q0 5 3.5 8t8.5 5q59 31 121 31q25 0 50.5 -7t46.5 -22t34.5 -38.5t13.5 -56.5q0 -21 -9 -39.5t-24 -32.5t-34.5 -24
t-40.5 -14v-1q60 -5 95 -39.5t35 -87.5z" />
    <glyph glyph-name="afii10073" unicode="&#x437;" horiz-adv-x="400" 
d="M357 129q0 -36 -15 -62t-40.5 -43.5t-59.5 -26t-73 -8.5q-32 0 -63.5 7t-57.5 19q-4 2 -7 4t-3 6v2t2 6l5 17q2 7 7 7t13 -4q25 -11 51.5 -18t53.5 -7q59 0 96.5 28.5t37.5 73.5q0 31 -12.5 50.5t-32 31t-43 16t-44.5 4.5h-48q-8 0 -10 10l-2 12q-1 5 -1 6v3q0 8 9 8h47
q23 0 44 7.5t37.5 20.5t26 30.5t9.5 38.5q0 39 -29.5 61.5t-71.5 22.5q-24 0 -50.5 -7t-49.5 -20q-8 -4 -11 -4q-4 0 -8 8l-4 8q-2 2 -2.5 5.5t-0.5 4.5q0 5 3.5 8t8.5 5q59 31 121 31q25 0 50.5 -7t46.5 -22t34.5 -38.5t13.5 -56.5q0 -21 -9 -39.5t-24 -32.5t-34.5 -24
t-40.5 -14v-1q60 -5 95 -39.5t35 -87.5z" />
    <glyph glyph-name="afii10074" unicode="&#xe8;" horiz-adv-x="537" 
d="M456 10q0 -10 -10 -10h-27q-10 0 -10 10v211q0 30 0.5 66t1.5 68l2 74l-2 1l-49 -85l-222 -336q-5 -9 -14 -9h-34q-10 0 -10 10v460q0 10 10 10h27q10 0 10 -10v-198q0 -32 -0.5 -70t-1.5 -72q-1 -40 -2 -79l2 -1l49 85l222 336q5 9 14 9h34q10 0 10 -10v-460z" />
    <glyph glyph-name="afii10074" unicode="&#x438;" horiz-adv-x="537" 
d="M456 10q0 -10 -10 -10h-27q-10 0 -10 10v211q0 30 0.5 66t1.5 68l2 74l-2 1l-49 -85l-222 -336q-5 -9 -14 -9h-34q-10 0 -10 10v460q0 10 10 10h27q10 0 10 -10v-198q0 -32 -0.5 -70t-1.5 -72q-1 -40 -2 -79l2 -1l49 85l222 336q5 9 14 9h34q10 0 10 -10v-460z" />
    <glyph glyph-name="afii10075" unicode="&#xe9;" horiz-adv-x="537" 
d="M394 635q0 -19 -8 -37.5t-24 -33t-40 -23.5t-55 -9t-55 9t-40 23.5t-24 33t-8 37.5q0 10 10 10h22q10 0 10 -10q0 -32 24.5 -51.5t60.5 -19.5t60.5 19.5t24.5 51.5q0 10 10 10h22q10 0 10 -10zM456 10q0 -10 -10 -10h-27q-10 0 -10 10v211q0 30 0.5 66t1.5 68l2 74l-2 1
l-49 -85l-222 -336q-5 -9 -14 -9h-34q-10 0 -10 10v460q0 10 10 10h27q10 0 10 -10v-198q0 -32 -0.5 -70t-1.5 -72q-1 -40 -2 -79l2 -1l49 85l222 336q5 9 14 9h34q10 0 10 -10v-460z" />
    <glyph glyph-name="afii10075" unicode="&#x439;" horiz-adv-x="537" 
d="M394 635q0 -19 -8 -37.5t-24 -33t-40 -23.5t-55 -9t-55 9t-40 23.5t-24 33t-8 37.5q0 10 10 10h22q10 0 10 -10q0 -32 24.5 -51.5t60.5 -19.5t60.5 19.5t24.5 51.5q0 10 10 10h22q10 0 10 -10zM456 10q0 -10 -10 -10h-27q-10 0 -10 10v211q0 30 0.5 66t1.5 68l2 74l-2 1
l-49 -85l-222 -336q-5 -9 -14 -9h-34q-10 0 -10 10v460q0 10 10 10h27q10 0 10 -10v-198q0 -32 -0.5 -70t-1.5 -72q-1 -40 -2 -79l2 -1l49 85l222 336q5 9 14 9h34q10 0 10 -10v-460z" />
    <glyph glyph-name="afii10076" unicode="&#xea;" horiz-adv-x="468" 
d="M138 230h-4v-220q0 -10 -10 -10h-28q-10 0 -10 10v460q0 10 10 10h28q10 0 10 -10v-208h4l235 208q6 5 9.5 7.5t10.5 2.5h33q10 0 10 -5q0 -4 -4 -8l-253 -219l264 -235q4 -4 4 -8q0 -5 -10 -5h-36q-7 0 -11 2.5t-9 7.5z" />
    <glyph glyph-name="afii10076" unicode="&#x43a;" horiz-adv-x="468" 
d="M138 230h-4v-220q0 -10 -10 -10h-28q-10 0 -10 10v460q0 10 10 10h28q10 0 10 -10v-208h4l235 208q6 5 9.5 7.5t10.5 2.5h33q10 0 10 -5q0 -4 -4 -8l-253 -219l264 -235q4 -4 4 -8q0 -5 -10 -5h-36q-7 0 -11 2.5t-9 7.5z" />
    <glyph glyph-name="afii10077" unicode="&#xeb;" 
d="M417 10q0 -10 -10 -10h-28q-10 0 -10 10v430h-193l-5 -129q-3 -80 -9 -136.5t-20.5 -94t-41.5 -57t-72 -26.5q-3 -1 -6 -1h-4q-7 0 -8 8l-3 22q0 6 2 7t12 3q33 7 52 24t29.5 48t15.5 79t8 118l7 165q0 10 10 10h264q10 0 10 -10v-460v0z" />
    <glyph glyph-name="afii10077" unicode="&#x43b;" 
d="M417 10q0 -10 -10 -10h-28q-10 0 -10 10v430h-193l-5 -129q-3 -80 -9 -136.5t-20.5 -94t-41.5 -57t-72 -26.5q-3 -1 -6 -1h-4q-7 0 -8 8l-3 22q0 6 2 7t12 3q33 7 52 24t29.5 48t15.5 79t8 118l7 165q0 10 10 10h264q10 0 10 -10v-460v0z" />
    <glyph glyph-name="afii10078" unicode="&#xec;" horiz-adv-x="628" 
d="M496 427h-3l-159 -417q-3 -10 -10 -10h-29q-7 0 -10 10l-151 417h-4l-22 -417q0 -10 -10 -10h-29q-6 0 -7.5 1.5t-1.5 4.5v5q0 4 1 12l34 447q1 10 10 10h41q7 0 10 -10l156 -405h1l158 405q3 10 10 10h43q9 0 10 -10l33 -445q1 -8 1 -12v-5q0 -8 -10 -8h-32q-9 0 -9 10z
" />
    <glyph glyph-name="afii10078" unicode="&#x43c;" horiz-adv-x="628" 
d="M496 427h-3l-159 -417q-3 -10 -10 -10h-29q-7 0 -10 10l-151 417h-4l-22 -417q0 -10 -10 -10h-29q-6 0 -7.5 1.5t-1.5 4.5v5q0 4 1 12l34 447q1 10 10 10h41q7 0 10 -10l156 -405h1l158 405q3 10 10 10h43q9 0 10 -10l33 -445q1 -8 1 -12v-5q0 -8 -10 -8h-32q-9 0 -9 10z
" />
    <glyph glyph-name="afii10079" unicode="&#xed;" horiz-adv-x="525" 
d="M444 10q0 -10 -10 -10h-28q-10 0 -10 10v224h-266v-224q0 -10 -10 -10h-28q-10 0 -10 10v460q0 10 10 10h28q10 0 10 -10v-196h266v196q0 10 10 10h28q10 0 10 -10v-460z" />
    <glyph glyph-name="afii10079" unicode="&#x43d;" horiz-adv-x="525" 
d="M444 10q0 -10 -10 -10h-28q-10 0 -10 10v224h-266v-224q0 -10 -10 -10h-28q-10 0 -10 10v460q0 10 10 10h28q10 0 10 -10v-196h266v196q0 10 10 10h28q10 0 10 -10v-460z" />
    <glyph glyph-name="afii10080" unicode="&#xee;" horiz-adv-x="542" 
d="M496 236q0 -67 -20.5 -114t-53 -76.5t-72.5 -43t-80 -13.5q-47 0 -87.5 17.5t-71 49.5t-48 78t-17.5 102q0 61 18.5 109t49 80t71 49t85.5 17q50 0 91.5 -19t71.5 -53t46.5 -81t16.5 -102zM448 236q0 33 -10 70.5t-31.5 70t-55 53.5t-81.5 21q-46 0 -79.5 -19t-55 -50
t-31.5 -69t-10 -77q0 -45 13.5 -83t37.5 -65.5t56 -43t69 -15.5t69.5 15t56.5 42.5t38 65.5t14 84z" />
    <glyph glyph-name="afii10080" unicode="&#x43e;" horiz-adv-x="542" 
d="M496 236q0 -67 -20.5 -114t-53 -76.5t-72.5 -43t-80 -13.5q-47 0 -87.5 17.5t-71 49.5t-48 78t-17.5 102q0 61 18.5 109t49 80t71 49t85.5 17q50 0 91.5 -19t71.5 -53t46.5 -81t16.5 -102zM448 236q0 33 -10 70.5t-31.5 70t-55 53.5t-81.5 21q-46 0 -79.5 -19t-55 -50
t-31.5 -69t-10 -77q0 -45 13.5 -83t37.5 -65.5t56 -43t69 -15.5t69.5 15t56.5 42.5t38 65.5t14 84z" />
    <glyph glyph-name="afii10081" unicode="&#xef;" horiz-adv-x="517" 
d="M388 440h-258v-430q0 -10 -10 -10h-28q-10 0 -10 10v460q0 10 10 10h334q10 0 10 -10v-460q0 -10 -10 -10h-28q-10 0 -10 10v430z" />
    <glyph glyph-name="afii10081" unicode="&#x43f;" horiz-adv-x="517" 
d="M388 440h-258v-430q0 -10 -10 -10h-28q-10 0 -10 10v460q0 10 10 10h334q10 0 10 -10v-460q0 -10 -10 -10h-28q-10 0 -10 10v430z" />
    <glyph glyph-name="afii10082" unicode="&#xf0;" horiz-adv-x="562" 
d="M468 246q0 40 -11 77.5t-32.5 65.5t-53 45t-72.5 17q-30 0 -60 -12t-53.5 -34t-38 -51.5t-14.5 -65.5v-104q0 -34 13 -62.5t35.5 -49t51.5 -32t62 -11.5q41 0 73.5 16t54.5 44.5t33.5 68.5t11.5 88zM516 248q0 -64 -18 -112.5t-48 -81t-69.5 -49t-82.5 -16.5
q-52 0 -95 22.5t-68 66.5h-2v-262q0 -7 -10 -10l-17 -4q-4 -1 -8.5 -2t-7.5 -1q-5 0 -5 7v540l-8 104q-1 8 -1.5 15t-0.5 8q0 6 7 7l21 3q5 1 9 1q5 0 6.5 -2t2.5 -6l9 -87h2q26 48 70.5 75t107.5 27q46 0 84 -18t65 -50.5t42 -77t15 -97.5z" />
    <glyph glyph-name="afii10082" unicode="&#x440;" horiz-adv-x="562" 
d="M468 246q0 40 -11 77.5t-32.5 65.5t-53 45t-72.5 17q-30 0 -60 -12t-53.5 -34t-38 -51.5t-14.5 -65.5v-104q0 -34 13 -62.5t35.5 -49t51.5 -32t62 -11.5q41 0 73.5 16t54.5 44.5t33.5 68.5t11.5 88zM516 248q0 -64 -18 -112.5t-48 -81t-69.5 -49t-82.5 -16.5
q-52 0 -95 22.5t-68 66.5h-2v-262q0 -7 -10 -10l-17 -4q-4 -1 -8.5 -2t-7.5 -1q-5 0 -5 7v540l-8 104q-1 8 -1.5 15t-0.5 8q0 6 7 7l21 3q5 1 9 1q5 0 6.5 -2t2.5 -6l9 -87h2q26 48 70.5 75t107.5 27q46 0 84 -18t65 -50.5t42 -77t15 -97.5z" />
    <glyph glyph-name="afii10083" unicode="&#xf1;" horiz-adv-x="456" 
d="M404 15q-19 -6 -51.5 -15.5t-76.5 -9.5q-52 0 -94.5 18t-72.5 50.5t-46.5 77.5t-16.5 99q0 57 18.5 104.5t51.5 81t78 52t99 18.5q35 0 63 -7t48 -15q10 -4 10 -9q0 -2 -1 -6t-2 -7l-4 -14q-2 -7 -7 -7q-4 0 -12 4q-17 8 -42 14t-57 6q-48 0 -84.5 -17t-61 -46t-37 -67.5
t-12.5 -80.5q0 -47 14 -85.5t39.5 -65.5t60 -42t76.5 -15q35 0 60 6.5t44 14.5q8 4 12 4q5 0 7 -7l5 -16q2 -6 2 -9q0 -5 -10 -9z" />
    <glyph glyph-name="afii10083" unicode="&#x441;" horiz-adv-x="456" 
d="M404 15q-19 -6 -51.5 -15.5t-76.5 -9.5q-52 0 -94.5 18t-72.5 50.5t-46.5 77.5t-16.5 99q0 57 18.5 104.5t51.5 81t78 52t99 18.5q35 0 63 -7t48 -15q10 -4 10 -9q0 -2 -1 -6t-2 -7l-4 -14q-2 -7 -7 -7q-4 0 -12 4q-17 8 -42 14t-57 6q-48 0 -84.5 -17t-61 -46t-37 -67.5
t-12.5 -80.5q0 -47 14 -85.5t39.5 -65.5t60 -42t76.5 -15q35 0 60 6.5t44 14.5q8 4 12 4q5 0 7 -7l5 -16q2 -6 2 -9q0 -5 -10 -9z" />
    <glyph glyph-name="afii10084" unicode="&#xf2;" horiz-adv-x="384" 
d="M364 480q5 0 6.5 -0.5t1.5 -5.5q0 -2 -2 -10l-4 -16q-3 -8 -9 -8h-138v-430q0 -10 -10 -10h-28q-10 0 -10 10v430h-142q-11 0 -11 10v20q0 10 11 10h335z" />
    <glyph glyph-name="afii10084" unicode="&#x442;" horiz-adv-x="384" 
d="M364 480q5 0 6.5 -0.5t1.5 -5.5q0 -2 -2 -10l-4 -16q-3 -8 -9 -8h-138v-430q0 -10 -10 -10h-28q-10 0 -10 10v430h-142q-11 0 -11 10v20q0 10 11 10h335z" />
    <glyph glyph-name="afii10085" unicode="&#xf3;" horiz-adv-x="453" 
d="M21 468q-1 2 -1 6q0 6 9 8l16 3q8 2 13 2q7 0 8 -2.5t3 -6.5l160 -411h2l150 403q3 10 10 10h33q9 0 9 -6v-4q0 -2 -2 -5l-143 -368q-28 -71 -52 -128.5t-51 -97.5t-59 -61.5t-76 -21.5q-9 0 -11 10l-4 15q-1 5 -1 8q0 7 8 7q32 2 55 16t41.5 37t34.5 55t33 71z" />
    <glyph glyph-name="afii10085" unicode="&#x443;" horiz-adv-x="453" 
d="M21 468q-1 2 -1 6q0 6 9 8l16 3q8 2 13 2q7 0 8 -2.5t3 -6.5l160 -411h2l150 403q3 10 10 10h33q9 0 9 -6v-4q0 -2 -2 -5l-143 -368q-28 -71 -52 -128.5t-51 -97.5t-59 -61.5t-76 -21.5q-9 0 -11 10l-4 15q-1 5 -1 8q0 7 8 7q32 2 55 16t41.5 37t34.5 55t33 71z" />
    <glyph glyph-name="afii10086" unicode="&#xf4;" horiz-adv-x="660" 
d="M318 -208q-10 0 -10 10v220q-15 -15 -39.5 -24t-47.5 -9q-45 0 -78 19t-54.5 53.5t-32.5 82t-11 104.5q0 45 10 89t31.5 78t55 55t79.5 21q50 0 87 -34v220q0 4 3.5 6.5t6.5 3.5q7 1 13 3q5 1 9.5 2t6.5 1h2q3 0 3 -4v-232q37 34 87 34q46 0 79.5 -21t55 -55t31.5 -78
t10 -89q0 -57 -11 -104.5t-32.5 -82t-54.5 -53.5t-78 -19q-23 0 -47.5 9t-39.5 24v-220q0 -10 -10 -10h-24v0zM428 453q-44 0 -76 -27v-371q14 -14 31.5 -21t44.5 -7q39 0 65.5 18t43 48t23.5 69.5t7 83.5q0 33 -8 69.5t-24.5 67t-43 50.5t-63.5 20zM232 27q26 0 44 7t32 21
v371q-32 27 -76 27q-37 0 -63.5 -20t-43 -50.5t-24.5 -67t-8 -69.5q0 -44 7 -83.5t23.5 -69.5t43 -48t65.5 -18z" />
    <glyph glyph-name="afii10086" unicode="&#x444;" horiz-adv-x="660" 
d="M318 -208q-10 0 -10 10v220q-15 -15 -39.5 -24t-47.5 -9q-45 0 -78 19t-54.5 53.5t-32.5 82t-11 104.5q0 45 10 89t31.5 78t55 55t79.5 21q50 0 87 -34v220q0 4 3.5 6.5t6.5 3.5q7 1 13 3q5 1 9.5 2t6.5 1h2q3 0 3 -4v-232q37 34 87 34q46 0 79.5 -21t55 -55t31.5 -78
t10 -89q0 -57 -11 -104.5t-32.5 -82t-54.5 -53.5t-78 -19q-23 0 -47.5 9t-39.5 24v-220q0 -10 -10 -10h-24v0zM428 453q-44 0 -76 -27v-371q14 -14 31.5 -21t44.5 -7q39 0 65.5 18t43 48t23.5 69.5t7 83.5q0 33 -8 69.5t-24.5 67t-43 50.5t-63.5 20zM232 27q26 0 44 7t32 21
v371q-32 27 -76 27q-37 0 -63.5 -20t-43 -50.5t-24.5 -67t-8 -69.5q0 -44 7 -83.5t23.5 -69.5t43 -48t65.5 -18z" />
    <glyph glyph-name="afii10087" unicode="&#xf5;" horiz-adv-x="439" 
d="M76 9q-6 -9 -12 -9h-33q-9 0 -9 6q0 3 3 7l167 232l-157 223q-2 4 -2 6q0 6 9 6h33q6 0 12 -9l130 -190h2l132 190q6 9 12 9h32q9 0 9 -6q0 -3 -3 -7l-158 -221l165 -234q2 -4 2 -6q0 -6 -9 -6h-34q-6 0 -12 9l-139 202h-2z" />
    <glyph glyph-name="afii10087" unicode="&#x445;" horiz-adv-x="439" 
d="M76 9q-6 -9 -12 -9h-33q-9 0 -9 6q0 3 3 7l167 232l-157 223q-2 4 -2 6q0 6 9 6h33q6 0 12 -9l130 -190h2l132 190q6 9 12 9h32q9 0 9 -6q0 -3 -3 -7l-158 -221l165 -234q2 -4 2 -6q0 -6 -9 -6h-34q-6 0 -12 9l-139 202h-2z" />
    <glyph glyph-name="afii10088" unicode="&#xf6;" horiz-adv-x="544" 
d="M401 40v430q0 10 11 10h27q10 0 10 -10v-430h50q10 0 10 -10v-170q0 -10 -10 -10h-21q-11 0 -11 10v140h-374q-11 0 -11 10v460q0 10 11 10h27q10 0 10 -10v-430h271z" />
    <glyph glyph-name="afii10088" unicode="&#x446;" horiz-adv-x="544" 
d="M401 40v430q0 10 11 10h27q10 0 10 -10v-430h50q10 0 10 -10v-170q0 -10 -10 -10h-21q-11 0 -11 10v140h-374q-11 0 -11 10v460q0 10 11 10h27q10 0 10 -10v-430h271z" />
    <glyph glyph-name="afii10089" unicode="&#xf7;" horiz-adv-x="472" 
d="M390 10q0 -10 -11 -10h-27q-10 0 -10 10v204q-14 -7 -32.5 -14t-39.5 -13t-41.5 -9.5t-37.5 -3.5q-32 0 -57.5 6t-44.5 22.5t-29 46t-10 77.5v144q0 10 11 10h27q10 0 10 -10v-142q0 -24 3.5 -45t14 -36.5t31 -24.5t54.5 -9q35 0 75 13t66 28v216q0 10 11 10h27
q10 0 10 -10v-460z" />
    <glyph glyph-name="afii10089" unicode="&#x447;" horiz-adv-x="472" 
d="M390 10q0 -10 -11 -10h-27q-10 0 -10 10v204q-14 -7 -32.5 -14t-39.5 -13t-41.5 -9.5t-37.5 -3.5q-32 0 -57.5 6t-44.5 22.5t-29 46t-10 77.5v144q0 10 11 10h27q10 0 10 -10v-142q0 -24 3.5 -45t14 -36.5t31 -24.5t54.5 -9q35 0 75 13t66 28v216q0 10 11 10h27
q10 0 10 -10v-460z" />
    <glyph glyph-name="afii10090" unicode="&#xf8;" horiz-adv-x="702" 
d="M82 470q0 10 11 10h27q10 0 10 -10v-430h197v430q0 10 11 10h27q10 0 10 -10v-430h197v430q0 10 11 10h27q10 0 10 -10v-460q0 -10 -10 -10h-517q-11 0 -11 10v460z" />
    <glyph glyph-name="afii10090" unicode="&#x448;" horiz-adv-x="702" 
d="M82 470q0 10 11 10h27q10 0 10 -10v-430h197v430q0 10 11 10h27q10 0 10 -10v-430h197v430q0 10 11 10h27q10 0 10 -10v-460q0 -10 -10 -10h-517q-11 0 -11 10v460z" />
    <glyph glyph-name="afii10091" unicode="&#xf9;" horiz-adv-x="725" 
d="M670 40q10 0 10 -10v-170q0 -10 -10 -10h-21q-11 0 -11 10v140h-545q-11 0 -11 10v460q0 10 11 10h27q10 0 10 -10v-430h197v430q0 10 11 10h27q10 0 10 -10v-430h197v430q0 10 11 10h27q10 0 10 -10v-430h50z" />
    <glyph glyph-name="afii10091" unicode="&#x449;" horiz-adv-x="725" 
d="M670 40q10 0 10 -10v-170q0 -10 -10 -10h-21q-11 0 -11 10v140h-545q-11 0 -11 10v460q0 10 11 10h27q10 0 10 -10v-430h197v430q0 10 11 10h27q10 0 10 -10v-430h197v430q0 10 11 10h27q10 0 10 -10v-430h50z" />
    <glyph glyph-name="afii10092" unicode="&#xfa;" horiz-adv-x="535" 
d="M216 274v-234q17 -3 38 -5t45 -2q25 0 51.5 5.5t49 19.5t37 37.5t14.5 58.5q0 37 -17 60t-44 36.5t-60 18.5t-65 5h-49zM26 440q-9 0 -9 5v4t1 6l2 15q2 10 10 10h176q10 0 10 -10v-159h51q43 0 85 -6.5t74.5 -24.5t52.5 -48.5t20 -78.5t-19.5 -78.5t-50.5 -48
t-68.5 -24.5t-73.5 -7q-27 0 -54.5 2.5t-49.5 6.5q-5 1 -10.5 5t-5.5 12v419h-141z" />
    <glyph glyph-name="afii10092" unicode="&#x44a;" horiz-adv-x="535" 
d="M216 274v-234q17 -3 38 -5t45 -2q25 0 51.5 5.5t49 19.5t37 37.5t14.5 58.5q0 37 -17 60t-44 36.5t-60 18.5t-65 5h-49zM26 440q-9 0 -9 5v4t1 6l2 15q2 10 10 10h176q10 0 10 -10v-159h51q43 0 85 -6.5t74.5 -24.5t52.5 -48.5t20 -78.5t-19.5 -78.5t-50.5 -48
t-68.5 -24.5t-73.5 -7q-27 0 -54.5 2.5t-49.5 6.5q-5 1 -10.5 5t-5.5 12v419h-141z" />
    <glyph glyph-name="afii10093" unicode="&#xfb;" horiz-adv-x="624" 
d="M131 274v-234q17 -3 38 -5t45 -2q25 0 51 5.5t48 19.5t36 37.5t14 58.5q0 37 -16.5 60t-43 36.5t-59 18.5t-64.5 5h-49zM131 311h51q43 0 84.5 -6.5t73.5 -24.5t51.5 -48.5t19.5 -78.5t-19 -78.5t-49.5 -48t-67.5 -24.5t-73 -7q-27 0 -54.5 2.5t-49.5 6.5q-5 1 -10.5 5
t-5.5 12v449q0 10 11 10h28q10 0 10 -10v-159zM543 10q0 -10 -10 -10h-27q-10 0 -10 10v460q0 10 10 10h27q10 0 10 -10v-460z" />
    <glyph glyph-name="afii10093" unicode="&#x44b;" horiz-adv-x="624" 
d="M131 274v-234q17 -3 38 -5t45 -2q25 0 51 5.5t48 19.5t36 37.5t14 58.5q0 37 -16.5 60t-43 36.5t-59 18.5t-64.5 5h-49zM131 311h51q43 0 84.5 -6.5t73.5 -24.5t51.5 -48.5t19.5 -78.5t-19 -78.5t-49.5 -48t-67.5 -24.5t-73 -7q-27 0 -54.5 2.5t-49.5 6.5q-5 1 -10.5 5
t-5.5 12v449q0 10 11 10h28q10 0 10 -10v-159zM543 10q0 -10 -10 -10h-27q-10 0 -10 10v460q0 10 10 10h27q10 0 10 -10v-460z" />
    <glyph glyph-name="afii10094" unicode="&#xfc;" horiz-adv-x="450" 
d="M131 274v-234q17 -3 38 -5t45 -2q25 0 51.5 5.5t49 19.5t37 37.5t14.5 58.5q0 37 -17 60t-44 36.5t-60 18.5t-65 5h-49zM131 311h51q43 0 85 -6.5t74.5 -24.5t52.5 -48.5t20 -78.5t-19.5 -78.5t-50.5 -48t-68.5 -24.5t-73.5 -7q-27 0 -54.5 2.5t-49.5 6.5q-5 1 -10.5 5
t-5.5 12v449q0 10 11 10h28q10 0 10 -10v-159z" />
    <glyph glyph-name="afii10094" unicode="&#x44c;" horiz-adv-x="450" 
d="M131 274v-234q17 -3 38 -5t45 -2q25 0 51.5 5.5t49 19.5t37 37.5t14.5 58.5q0 37 -17 60t-44 36.5t-60 18.5t-65 5h-49zM131 311h51q43 0 85 -6.5t74.5 -24.5t52.5 -48.5t20 -78.5t-19.5 -78.5t-50.5 -48t-68.5 -24.5t-73.5 -7q-27 0 -54.5 2.5t-49.5 6.5q-5 1 -10.5 5
t-5.5 12v449q0 10 11 10h28q10 0 10 -10v-159z" />
    <glyph glyph-name="afii10095" unicode="&#xfd;" horiz-adv-x="461" 
d="M61 462q32 16 62.5 22.5t62.5 6.5q57 0 99.5 -19t71.5 -53t43.5 -81t14.5 -102q0 -49 -15.5 -93.5t-46 -78.5t-76 -54t-104.5 -20q-65 0 -123 26q-4 2 -7 4t-3 6v3t2 7l5 15q2 7 7 7q4 0 12 -4q17 -8 45 -15.5t65 -7.5q43 0 77.5 14t59 40t38.5 62t16 80h-253
q-8 0 -10 10l-2 12q-1 5 -1 6v3q0 8 9 8h256q-2 37 -14 70t-34.5 58.5t-57 40.5t-81.5 15q-32 0 -58 -7.5t-45 -15.5q-8 -4 -12 -4q-5 0 -7 7l-5 15q-2 6 -2 7q0 5 3 6.5t8 3.5z" />
    <glyph glyph-name="afii10095" unicode="&#x44d;" horiz-adv-x="461" 
d="M61 462q32 16 62.5 22.5t62.5 6.5q57 0 99.5 -19t71.5 -53t43.5 -81t14.5 -102q0 -49 -15.5 -93.5t-46 -78.5t-76 -54t-104.5 -20q-65 0 -123 26q-4 2 -7 4t-3 6v3t2 7l5 15q2 7 7 7q4 0 12 -4q17 -8 45 -15.5t65 -7.5q43 0 77.5 14t59 40t38.5 62t16 80h-253
q-8 0 -10 10l-2 12q-1 5 -1 6v3q0 8 9 8h256q-2 37 -14 70t-34.5 58.5t-57 40.5t-81.5 15q-32 0 -58 -7.5t-45 -15.5q-8 -4 -12 -4q-5 0 -7 7l-5 15q-2 6 -2 7q0 5 3 6.5t8 3.5z" />
    <glyph glyph-name="afii10096" unicode="&#xfe;" horiz-adv-x="678" 
d="M583 244q0 37 -9.5 74.5t-29 66.5t-48 47.5t-67.5 18.5q-37 0 -65.5 -17.5t-48.5 -47.5t-30.5 -69t-10.5 -81q0 -38 9.5 -75.5t29 -67t48 -48t66.5 -18.5h1q40 0 69.5 20t48.5 51.5t28 70t9 75.5zM631 245q0 -56 -15 -103t-42 -81t-65 -53t-83 -19q-43 0 -79 16.5
t-62 47.5t-41.5 74t-17.5 97h-96v-214q0 -10 -10 -10h-28q-10 0 -10 10v460q0 10 10 10h28q10 0 10 -10v-206h97q4 50 20.5 92t43.5 72t62.5 46.5t77.5 16.5q45 0 81.5 -17.5t63 -49.5t41 -77.5t14.5 -101.5z" />
    <glyph glyph-name="afii10096" unicode="&#x44e;" horiz-adv-x="678" 
d="M583 244q0 37 -9.5 74.5t-29 66.5t-48 47.5t-67.5 18.5q-37 0 -65.5 -17.5t-48.5 -47.5t-30.5 -69t-10.5 -81q0 -38 9.5 -75.5t29 -67t48 -48t66.5 -18.5h1q40 0 69.5 20t48.5 51.5t28 70t9 75.5zM631 245q0 -56 -15 -103t-42 -81t-65 -53t-83 -19q-43 0 -79 16.5
t-62 47.5t-41.5 74t-17.5 97h-96v-214q0 -10 -10 -10h-28q-10 0 -10 10v460q0 10 10 10h28q10 0 10 -10v-206h97q4 50 20.5 92t43.5 72t62.5 46.5t77.5 16.5q45 0 81.5 -17.5t63 -49.5t41 -77.5t14.5 -101.5z" />
    <glyph glyph-name="currency" unicode="&#xa4;" 
d="M475 26q-24 -12 -58 -24.5t-79 -12.5q-54 0 -99 18.5t-78.5 54t-54.5 85.5t-28 113h-52q-8 0 -8 6q0 3 2 13l2 9q1 9 11 9h43q0 35 3 67h-53q-8 0 -8 6q0 3 2 13l2 9q1 9 11 9h51q9 59 32 107t57.5 82t79.5 52.5t98 18.5q38 0 66.5 -9t47.5 -19q6 -3 6 -8q0 -2 -2 -8
l-6 -16q-2 -6 -8 -6q-2 0 -6 2q-19 11 -46 17.5t-56 6.5q-90 0 -144.5 -59t-70.5 -161h308q8 0 8 -6q0 -3 -2 -13l-2 -9q-2 -9 -11 -9h-307q-1 -16 -1.5 -33t-0.5 -34h297q8 0 8 -6q0 -3 -2 -13l-2 -9q-2 -9 -11 -9h-288q6 -60 26 -103.5t49 -71.5t65.5 -41.5t77.5 -13.5
q37 0 66.5 10t49.5 21q4 2 6 2q6 0 8 -6l5 -15q2 -6 2 -8q0 -5 -6 -8z" />
    <glyph glyph-name="Euro" unicode="&#x2c6;" 
d="M475 26q-24 -12 -58 -24.5t-79 -12.5q-54 0 -99 18.5t-78.5 54t-54.5 85.5t-28 113h-52q-8 0 -8 6q0 3 2 13l2 9q1 9 11 9h43q0 35 3 67h-53q-8 0 -8 6q0 3 2 13l2 9q1 9 11 9h51q9 59 32 107t57.5 82t79.5 52.5t98 18.5q38 0 66.5 -9t47.5 -19q6 -3 6 -8q0 -2 -2 -8
l-6 -16q-2 -6 -8 -6q-2 0 -6 2q-19 11 -46 17.5t-56 6.5q-90 0 -144.5 -59t-70.5 -161h308q8 0 8 -6q0 -3 -2 -13l-2 -9q-2 -9 -11 -9h-307q-1 -16 -1.5 -33t-0.5 -34h297q8 0 8 -6q0 -3 -2 -13l-2 -9q-2 -9 -11 -9h-288q6 -60 26 -103.5t49 -71.5t65.5 -41.5t77.5 -13.5
q37 0 66.5 10t49.5 21q4 2 6 2q6 0 8 -6l5 -15q2 -6 2 -8q0 -5 -6 -8z" />
    <glyph glyph-name="quotedblbase" unicode="&#x201e;" horiz-adv-x="368" 
d="M76 -110q-4 -11 -13 -12l-11 -2q-5 -1 -8 -1h-5q-4 0 -4 5l45 183q2 8 5.5 16t14.5 10q19 4 29 5t12 1q7 0 7 -7q0 -5 -2 -10zM226 -110q-4 -11 -13 -12l-11 -2q-5 -1 -8 -1h-5q-4 0 -4 5l45 183q2 8 5.5 16t14.5 10q19 4 29 5t12 1q7 0 7 -7q0 -5 -2 -10z" />
    <glyph glyph-name="daggerdbl" unicode="&#x2021;" horiz-adv-x="500" 
d="M437 426q0 -10 -10 -10h-14q-4 0 -9 1l-145 7l4 -96l141 6h9q4 0 8 0.5t6 0.5q10 0 10 -10v-29q0 -10 -10 -10h-14q-4 0 -9 1l-141 6l11 -302v-13q0 -5 0.5 -10.5t0.5 -7.5q0 -10 -10 -10h-45q-10 0 -10 10v18q0 6 1 13l10 302l-140 -6q-5 -1 -9 -1h-14q-10 0 -10 10v29
q0 10 10 10q2 0 6 -0.5t8 -0.5h9l141 -6l4 96l-145 -7q-5 -1 -9 -1h-14q-10 0 -10 10v29q0 10 10 10q2 0 6 -0.5t8 -0.5h9l145 -7l-7 184q-1 5 -1 9v14q0 10 10 10h29q10 0 10 -10q0 -2 -0.5 -6t-0.5 -8v-9l-7 -184l145 7h9q4 0 8 0.5t6 0.5q10 0 10 -10v-29v0z" />
    <glyph glyph-name="brokenbar" unicode="&#xa6;" horiz-adv-x="212" 
d="M127 -240q0 -10 -10 -10h-23q-10 0 -10 10v329q0 10 10 10h23q10 0 10 -10v-329v0zM127 411q0 -10 -10 -10h-23q-10 0 -10 10v329q0 10 10 10h23q10 0 10 -10v-329v0z" />
    <glyph glyph-name="periodcentered" unicode="&#xb7;" horiz-adv-x="174" 
d="M134 284q0 -20 -10.5 -32.5t-29.5 -12.5t-29.5 12.5t-10.5 32.5t10.5 32.5t29.5 12.5t29.5 -12.5t10.5 -32.5z" />
    <glyph glyph-name="numbersign" unicode="#" horiz-adv-x="528" 
d="M469 420q0 -10 -10 -10h-88l-21 -165h89q10 0 10 -10v-19q0 -10 -10 -10h-94l-21 -171q-1 -10 -10 -10h-22q-9 0 -9 5q0 1 0.5 7t1.5 10l19 159h-142l-22 -171q-1 -10 -10 -10h-22q-9 0 -9 5q0 1 0.5 8t1.5 11l19 157h-73q-10 0 -10 10v19q0 10 10 10h78l21 165h-78
q-10 0 -10 10v19q0 10 10 10h83l24 171q1 10 10 10h22q9 0 9 -5q0 -4 -2 -14l-22 -162h143l24 171q1 10 10 10h22q9 0 9 -5q0 -4 -2 -14l-22 -162h83q10 0 10 -10v-19v0zM187 410l-20 -165h142l20 165h-142z" />
    <glyph glyph-name="exclam" unicode="!" horiz-adv-x="207" 
d="M127 664v-9t-0.5 -21t-1 -28t-0.5 -29l-13 -345q-1 -20 -1.5 -32t-0.5 -13q0 -10 -10 -10h-5q-10 0 -10 10q0 1 -0.5 13t-1.5 32l-13 345q0 14 -0.5 29t-1 28t-0.5 21v9q0 10 10 10h39q10 0 10 -10zM138 34q0 -20 -10.5 -32.5t-29.5 -12.5t-29.5 12.5t-10.5 32.5
t10.5 32.5t29.5 12.5t29.5 -12.5t10.5 -32.5z" />
    <glyph glyph-name="quotedbl" unicode="&#x22;" horiz-adv-x="301" 
d="M274 686q0 -2 -1.5 -6.5t-1.5 -5.5l-67 -194q-3 -9 -10 -9h-19q-5 0 -5 4q0 2 1 7t3 12l42 188q2 10 13 10h37q8 0 8 -6zM154 686q0 -2 -1.5 -6.5t-1.5 -5.5l-67 -194q-3 -9 -10 -9h-19q-5 0 -5 4q0 2 1 7t3 12l42 188q2 10 13 10h37q8 0 8 -6z" />
    <glyph glyph-name="sterling" horiz-adv-x="513" 
d="M72 311q-10 0 -10 10v19q0 10 10 10h91q-4 25 -8.5 57.5t-4.5 66.5q0 37 11 71t33 60t53.5 41t72.5 15q18 0 38.5 -3t37.5 -8.5t28.5 -12.5t11.5 -14q0 -3 -1 -5l-10 -17q-3 -5 -9 -5q-3 0 -5 1q-16 10 -39 17.5t-55 7.5t-55 -11.5t-37.5 -31t-21.5 -46t-7 -56.5
q0 -40 4 -70t9 -57h137q10 0 10 -10v-19q0 -10 -10 -10h-132q2 -19 3.5 -38t1.5 -38q0 -56 -21 -106.5t-66 -85.5v-2h307q10 0 10 -10v-21q0 -10 -10 -10h-368q-12 0 -12 10v11q0 9 4.5 11t6.5 4q52 32 78 81t26 105q0 23 -1 43t-5 46h-96z" />
    <glyph glyph-name="notequal" unicode="&#x2260;" horiz-adv-x="596" 
d="M556 165q0 -10 -10 -10h-300l-79 -124q-6 -10 -15 -10h-21q-3 0 -6 1.5t-3 4.5l2 4l79 124h-153q-10 0 -10 10v20q0 10 10 10h178l97 150h-275q-10 0 -10 10v20q0 10 10 10h300l78 123q6 10 15 10h21q3 0 6 -1.5t3 -4.5l-2 -4l-78 -123h153q10 0 10 -10v-20
q0 -10 -10 -10h-178l-97 -150h276q9 0 9 -10v-20v0z" />
    <glyph glyph-name="Delta" unicode="&#x2206;" horiz-adv-x="551" 
d="M273 607l-200 -567h403l-200 567h-3zM526 16q0 -16 -20 -16h-461q-20 0 -20 16v11q0 5 1.5 9.5t3.5 9.5l220 602q3 10 13 10h26q10 0 13 -10l219 -602q2 -5 3.5 -9.5t1.5 -9.5v-11v0z" />
    <glyph glyph-name="divide" horiz-adv-x="544" 
d="M273 399q-18 0 -29 13t-11 31q0 20 11.5 32.5t29.5 12.5q19 0 30 -12.5t11 -32.5q0 -18 -11 -31t-30 -13h-1zM273 48q-18 0 -29 13t-11 31q0 20 11.5 32.5t29.5 12.5q19 0 30 -12.5t11 -32.5q0 -18 -11 -31t-30 -13h-1zM44 248q-10 0 -10 8v2q0 3 1 6l2 13q1 10 10 10
h453q10 0 10 -8v-2q0 -1 -0.5 -2.5t-0.5 -3.5l-2 -13q-1 -10 -10 -10h-453z" />
    </font>
</defs>
</svg>
